<svg width="32" height="32" viewBox="0 0 32 32" fill="none" xmlns="http://www.w3.org/2000/svg">
<path d="M13.1251 0.1C11.8563 0.36875 10.3626 1.2 8.6376 2.5875C7.68135 3.35625 6.1251 4.80625 5.3626 5.64375C4.68135 6.3875 4.6126 6.55625 4.90635 6.84375C5.21885 7.1625 5.3251 7.10625 6.48135 5.93125C9.55635 2.80625 12.0501 1.1375 13.8126 1.01875C15.5501 0.9 17.9626 2.4 21.2188 5.6375C22.7126 7.125 22.7751 7.1625 23.0938 6.84375C23.3876 6.55625 23.3188 6.3875 22.6126 5.61875C21.8188 4.75 20.3563 3.38125 19.3938 2.60625C16.7876 0.5125 14.8376 -0.26875 13.1251 0.1Z" fill="#008080"/>
<path d="M12.6564 2.15625C12.3439 2.4625 12.5626 3 13.0001 3C13.2564 3 13.5001 2.75625 13.5001 2.5C13.5001 2.24375 13.2564 2 13.0001 2C12.8814 2 12.7501 2.05625 12.6564 2.15625Z" fill="#008080"/>
<path d="M15.1564 2.65625C14.8439 2.9625 15.0626 3.5 15.5001 3.5C15.7564 3.5 16.0001 3.25625 16.0001 3C16.0001 2.74375 15.7564 2.5 15.5001 2.5C15.3814 2.5 15.2501 2.55625 15.1564 2.65625Z" fill="#008080"/>
<path d="M13.6564 3.65625C13.3439 3.9625 13.5626 4.5 14.0001 4.5C14.2564 4.5 14.5001 4.25625 14.5001 4C14.5001 3.74375 14.2564 3.5 14.0001 3.5C13.8814 3.5 13.7501 3.55625 13.6564 3.65625Z" fill="#008080"/>
<path d="M11.1564 4.15625C10.8439 4.4625 11.0626 5 11.5001 5C11.7564 5 12.0001 4.75625 12.0001 4.5C12.0001 4.24375 11.7564 4 11.5001 4C11.3814 4 11.2501 4.05625 11.1564 4.15625Z" fill="#008080"/>
<path d="M16.1562 4.65625C16.0563 4.75 16 4.88125 16 5C16 5.11875 16.0563 5.25 16.1562 5.34375C16.25 5.44375 16.3812 5.5 16.5 5.5C16.6188 5.5 16.75 5.44375 16.8438 5.34375C16.9438 5.25 17 5.11875 17 5C17 4.88125 16.9438 4.75 16.8438 4.65625C16.75 4.55625 16.6188 4.5 16.5 4.5C16.3812 4.5 16.25 4.55625 16.1562 4.65625Z" fill="#008080"/>
<path d="M9.15635 6.15625C8.84385 6.4625 9.0626 7 9.5001 7C9.75635 7 10.0001 6.75625 10.0001 6.5C10.0001 6.24375 9.75635 6 9.5001 6C9.38135 6 9.2501 6.05625 9.15635 6.15625Z" fill="#008080"/>
<path d="M12.1564 6.15625C11.8439 6.4625 12.0626 7 12.5001 7C12.7564 7 13.0001 6.75625 13.0001 6.5C13.0001 6.24375 12.7564 6 12.5001 6C12.3814 6 12.2501 6.05625 12.1564 6.15625Z" fill="#008080"/>
<path d="M14.6564 6.15625C14.3439 6.4625 14.5626 7 15.0001 7C15.2564 7 15.5001 6.75625 15.5001 6.5C15.5001 6.24375 15.2564 6 15.0001 6C14.8814 6 14.7501 6.05625 14.6564 6.15625Z" fill="#008080"/>
<path d="M18.1562 6.15625C18.0563 6.25 18 6.38125 18 6.5C18 6.61875 18.0563 6.75 18.1562 6.84375C18.25 6.94375 18.3812 7 18.5 7C18.6188 7 18.75 6.94375 18.8438 6.84375C18.9438 6.75 19 6.61875 19 6.5C19 6.38125 18.9438 6.25 18.8438 6.15625C18.75 6.05625 18.6188 6 18.5 6C18.3812 6 18.25 6.05625 18.1562 6.15625Z" fill="#008080"/>
<path d="M27.1562 6.65625C27 6.80625 27 6.8125 27 8.0625V9.3125L26.775 9.625C26.4562 10.0687 26.1437 10.825 26.05 11.3562L25.975 11.8063L25.5687 11.775C25.3437 11.7562 25.1187 11.7312 25.0812 11.7125C25.0187 11.7 25 11.4 25 10.5C25 9.31875 25 9.30625 24.8437 9.15625C24.6625 8.96875 24.3812 8.95625 24.1812 9.11875C24.0312 9.2375 24.0312 9.24375 24 10.9812C23.9687 12.6375 23.9937 13.3313 24.0875 13.8125L24.1312 14.0313H23.6875C23.2812 14.0313 23.225 14.0437 23.1062 14.1937C22.975 14.35 22.5125 14.6625 22.475 14.6188C22.4687 14.6062 22.4125 14.425 22.35 14.2188C22.25 13.8938 21.9437 13.2312 21.75 12.9375C21.7187 12.8875 21.4187 12.325 21.0875 11.6875C20.7625 11.05 20.4437 10.4812 20.3937 10.4187C20.2312 10.2438 19.85 10.275 19.6875 10.4812C19.4937 10.7312 19.5375 10.8812 20.125 11.9938C20.4062 12.525 20.6125 12.975 20.5812 12.9938C20.5562 13.0188 20.3687 13.1438 20.1625 13.2813C19.85 13.4938 19.7937 13.5125 19.7437 13.425C19.4625 12.925 18.7187 12.2625 18.0812 11.95C17.7687 11.7937 17.75 11.7688 17.3062 10.9125C17.0562 10.425 16.7875 9.925 16.7062 9.79375C16.55 9.54375 16.3062 9.4125 16.1125 9.475C15.9312 9.53125 15.75 9.75625 15.75 9.93125C15.75 10.0125 16 10.5687 16.3062 11.1563L16.8625 12.225L16.8062 12.725C16.7437 13.3125 16.825 14.1188 17 14.5813C17.0687 14.7562 17.1187 14.9063 17.1062 14.9125C17.0125 14.9938 16.225 15.25 16.1875 15.2125C16.1562 15.1813 15.9187 14.7375 15.6562 14.2312C15.3875 13.7188 15.1125 13.25 15.0437 13.1813C14.7687 12.925 14.25 13.1563 14.25 13.5375C14.25 13.6312 14.4812 14.1438 14.7625 14.6813C15.0437 15.2188 15.4187 15.95 15.6 16.3125C15.775 16.675 16.0562 17.15 16.2187 17.3625C16.3812 17.5813 16.5062 17.7625 16.4937 17.7688C16.4812 17.7812 16.3187 17.8563 16.1375 17.9375C15.775 18.1 15.6875 18.2063 15.6875 18.4813C15.6875 18.7 16.1187 19.3563 16.6187 19.8875L16.9812 20.2812L16.8875 20.4875C16.7875 20.6875 16.7937 20.7125 16.9375 20.9875C17.125 21.3375 17.7187 22.0938 17.9812 22.3188C18.15 22.4625 18.1625 22.4938 18.0875 22.5938C17.8937 22.8625 18.0312 23.2125 18.6125 23.95C18.8187 24.2063 19.0625 24.475 19.15 24.55C19.3187 24.675 19.3187 24.6813 19.2187 24.875C19.1375 25.025 19.1312 25.1125 19.1812 25.2563C19.3375 25.7 20.0437 26.5688 20.5875 26.9813C21.4125 27.6 22.2562 27.8625 23.2187 27.7938C23.6437 27.7625 23.8937 27.7125 24.7375 27.4875C24.7937 27.475 25.2187 28.2313 25.9312 29.5875C26.5437 30.7563 27.1 31.775 27.175 31.8563C27.35 32.05 27.6437 32.05 27.8437 31.8438L28 31.6938V29.075V26.4625L28.4375 26.3875C29.4812 26.2125 30.5187 25.6188 31.0437 24.9188C31.5687 24.2125 31.8937 23.3 31.975 22.3063L32.0187 21.8188L31.8187 21.6313L31.6187 21.4438L31.7437 21.0312C31.8187 20.8 31.9062 20.3688 31.95 20.0625C32.0312 19.4438 31.975 19.1875 31.725 19.075L31.5812 19.0125L31.725 18.5813C31.8937 18.075 32.0375 17.0938 31.975 16.85C31.95 16.7563 31.8562 16.6313 31.7562 16.5813L31.5812 16.4813L31.7 16.175C31.8312 15.8313 32 14.9125 32 14.55C32 14.3688 31.9562 14.2625 31.8375 14.1438C31.6875 13.9938 31.65 13.9875 31.25 14.0188L30.8187 14.0563L30.8937 13.8875C30.9437 13.775 30.975 13.0188 30.9875 11.5188L31.0062 9.3125L30.85 9.15625C30.6437 8.95 30.3562 8.95 30.1562 9.15625C30 9.30625 30 9.31875 30 10.4938C30 11.85 30.0687 11.7063 29.3687 11.775L29.025 11.8125L28.95 11.3562C28.8562 10.825 28.5437 10.0687 28.225 9.625L28 9.3125V8.0625C28 6.8125 28 6.80625 27.8437 6.65625C27.75 6.55625 27.6187 6.5 27.5 6.5C27.3812 6.5 27.25 6.55625 27.1562 6.65625ZM27.7062 10.7312C27.9187 11.2125 28 11.5313 28 11.875C28 12.0313 27.9687 12.2688 27.9312 12.4063C27.8437 12.7375 27.5562 13.375 27.5 13.375C27.4437 13.375 27.1562 12.7375 27.0687 12.4063C26.9312 11.8938 26.9937 11.4125 27.2937 10.7312C27.3812 10.5375 27.475 10.375 27.5 10.375C27.525 10.375 27.6187 10.5375 27.7062 10.7312ZM25.9562 12.8438C26.1 12.8812 26.175 12.975 26.3375 13.3375C26.45 13.5813 26.65 13.9313 26.775 14.1188C26.9875 14.4313 27 14.475 27 14.9688V15.4938L26.6937 15.1937C26.5187 15.0313 26.2062 14.8 26 14.6813C25.5375 14.425 25.3562 14.2438 25.1812 13.8812C25.075 13.65 24.9187 12.7875 24.9812 12.7312C25.0062 12.7 25.7562 12.7937 25.9562 12.8438ZM29.9875 13.1375C29.9375 13.9063 29.6812 14.3 28.9937 14.6875C28.7812 14.8063 28.4687 15.0313 28.3062 15.1937L28 15.475V14.9625C28 14.475 28.0125 14.4313 28.225 14.1188C28.35 13.9313 28.55 13.5813 28.6625 13.3313L28.8687 12.8875L29.2 12.8187C29.3812 12.7813 29.6187 12.7375 29.7187 12.725C29.825 12.7188 29.9312 12.7 29.9625 12.6937C29.9937 12.6937 30 12.8938 29.9875 13.1375ZM18.4 13.3812C18.6187 13.5813 18.8187 13.8375 18.9375 14.0875C19.1375 14.4875 19.2812 15.225 19.2187 15.4875L19.1812 15.6312L18.9187 15.4437C18.2812 15.0062 17.9062 14.3812 17.8 13.5875C17.7 12.825 17.7625 12.8 18.4 13.3812ZM21.3187 14.2625C21.425 14.55 21.4687 14.7813 21.4687 15.1C21.4625 15.5062 21.4437 15.5687 21.2187 15.9125C20.9812 16.2625 20.6937 16.8875 20.6875 17.0438C20.6875 17.2438 20.5625 17.1375 20.3562 16.7563L20.1312 16.3375L20.1812 15.8375C20.2125 15.5687 20.225 15.2125 20.2062 15.05C20.15 14.5938 20.2125 14.475 20.6437 14.1625C20.8562 14.0062 21.0625 13.875 21.1 13.875C21.1375 13.875 21.2375 14.05 21.3187 14.2625ZM24.6625 15.1937C25.3 15.3875 25.6687 15.6 26.0375 15.9625C26.4562 16.3875 26.7312 16.9375 26.9062 17.7125L26.9437 17.8938L26.6312 17.6313C26.1625 17.2375 25.6812 16.9688 25.1 16.7812L24.575 16.6125L24.4 16.2313C24.2375 15.8688 24.0625 15.3063 24.0625 15.1375C24.0625 15.0313 24.1687 15.0437 24.6625 15.1937ZM30.9375 15.1125C30.9375 15.2562 30.725 15.95 30.5812 16.2625C30.425 16.6063 30.4125 16.625 30.0687 16.7188C29.525 16.875 28.8812 17.2125 28.4562 17.5563C28.2375 17.7313 28.0625 17.8563 28.0625 17.8375C28.0625 17.8188 28.1062 17.6313 28.1625 17.4188C28.4562 16.2812 29.2 15.5125 30.3437 15.1813C30.7625 15.0563 30.9375 15.0375 30.9375 15.1125ZM23.1875 16.625C23.0312 16.7688 23 16.85 23 17.075C23 17.4375 23.1 17.9813 23.2625 18.5563C23.375 18.9313 23.3812 19.0312 23.3187 19.05C23.1187 19.1188 23 19.3188 23 19.5875C23 19.9188 23.15 20.725 23.2875 21.1375L23.3875 21.4375L23.1812 21.6313L22.9812 21.8188L23.0187 22.3C23.0687 22.9438 23.2687 23.6875 23.5187 24.2C23.6312 24.4375 23.7187 24.625 23.7062 24.625C23.6937 24.625 23.55 24.5563 23.3875 24.475C22.675 24.1125 21.75 24.0063 20.8562 24.1813C20.4375 24.2625 20.4312 24.2625 20.1812 24.0875C19.85 23.8563 19.2312 23.1813 19.2937 23.1188C19.3187 23.0938 19.5812 23.025 19.8687 22.9625C20.3812 22.8625 20.6437 22.8625 21.45 22.975C21.7062 23.0125 21.7562 22.9938 21.9 22.8563C22.2062 22.5438 22.0562 22.1375 21.5812 22C21.1437 21.875 20.2562 21.8563 19.7562 21.9625L19.3 22.0563L19.0375 21.8813C18.75 21.6813 18.125 21.0438 18.125 20.9438C18.125 20.7563 19.575 20.6125 20.1687 20.75C20.4875 20.8188 20.5312 20.8125 20.6812 20.7063C20.9625 20.4875 20.9625 20.0312 20.6687 19.8875C20.2562 19.6813 19.1812 19.6188 18.4812 19.7563C18.1625 19.8188 18.1125 19.8188 17.9187 19.6938C17.625 19.5125 16.9125 18.75 16.9812 18.6875C17.0625 18.6063 17.9625 18.4375 18.2937 18.4375C19.5187 18.4375 20.5687 19.275 21.4125 20.925C21.7625 21.6125 21.9312 21.7438 22.275 21.6C22.4125 21.5438 22.5062 21.45 22.55 21.325C22.6062 21.15 22.575 21.05 22.1937 20.2563C21.675 19.1813 21.5375 18.65 21.575 17.8813C21.6125 17.0875 21.8687 16.575 22.5687 15.9063L23.0812 15.4187L23.2312 15.9313L23.375 16.45L23.1875 16.625ZM18.1687 16.1313C18.4 16.3063 18.7312 16.525 18.9125 16.6125C19.1875 16.75 19.2625 16.825 19.4687 17.2C19.5937 17.4375 19.6875 17.6438 19.675 17.6562C19.6625 17.6688 19.5125 17.6375 19.3437 17.5875C19.1687 17.5375 18.7812 17.475 18.4687 17.4563C17.8062 17.4125 17.4562 17.2625 17.1062 16.8813C16.9062 16.6625 16.6875 16.3188 16.6875 16.225C16.6875 16.1438 17.2312 15.9313 17.7375 15.8187C17.7437 15.8125 17.9437 15.9563 18.1687 16.1313ZM24.6625 17.6938C24.9 17.7688 25.2312 17.8938 25.4 17.9813C25.7937 18.1813 26.3187 18.7063 26.5187 19.1C26.6687 19.4 26.9375 20.1875 26.9375 20.3375C26.9375 20.3813 26.8062 20.3 26.65 20.1562C26.25 19.7812 25.7 19.475 25.0937 19.2812L24.575 19.1125L24.4 18.7313C24.2375 18.3688 24.0625 17.8063 24.0625 17.6375C24.0625 17.5312 24.1687 17.5438 24.6625 17.6938ZM30.9375 17.6125C30.9375 17.7563 30.725 18.45 30.5875 18.7563L30.425 19.1125L29.9 19.2812C29.3187 19.4688 28.8375 19.7375 28.3687 20.1313C28.2 20.2688 28.0625 20.3688 28.0625 20.3438C28.0625 20.1562 28.3 19.4563 28.4812 19.1063C28.8437 18.4188 29.475 17.9313 30.3437 17.6813C30.7625 17.5563 30.9375 17.5375 30.9375 17.6125ZM24.7812 20.2313C25.8062 20.55 26.45 21.2 26.7687 22.2188C26.8187 22.3875 26.8812 22.6125 26.9062 22.7125L26.9437 22.8938L26.6312 22.6313C26.1625 22.2375 25.6812 21.9688 25.1 21.7812L24.5812 21.6125L24.4125 21.2563C24.2562 20.925 24.0625 20.3188 24.0625 20.1375C24.0625 20.0438 24.2625 20.0688 24.7812 20.2313ZM30.9375 20.1125C30.9375 20.2563 30.725 20.95 30.5812 21.2625C30.425 21.6063 30.4125 21.625 30.0687 21.7188C29.525 21.875 28.8812 22.2125 28.4562 22.5563C28.2375 22.7313 28.0625 22.8563 28.0625 22.8375C28.0625 22.8188 28.1062 22.6313 28.1625 22.4188C28.4625 21.25 29.2375 20.4813 30.4375 20.1625C30.8437 20.0563 30.9375 20.0438 30.9375 20.1125ZM24.7812 22.7313C25.8812 23.075 26.5437 23.8 26.8437 24.9875C26.9 25.2063 26.9312 25.4 26.9125 25.4188C26.85 25.4813 26.0562 25.25 25.675 25.0563C25.1562 24.7938 24.7437 24.3875 24.4812 23.8875C24.2875 23.5188 24.0625 22.8438 24.0625 22.625C24.0625 22.5438 24.2812 22.575 24.7812 22.7313ZM30.9375 22.6438C30.9375 22.8125 30.6937 23.55 30.5312 23.8688C30.3062 24.3188 29.8 24.8188 29.3312 25.0563C28.9375 25.25 28.15 25.4813 28.0812 25.4188C28.0625 25.3938 28.0937 25.1938 28.15 24.9625C28.4437 23.7875 29.1875 23.0188 30.3437 22.6813C30.8 22.55 30.9375 22.5375 30.9375 22.6438ZM22.625 25.2375C22.7812 25.2875 23.0437 25.4188 23.2187 25.5313C23.5687 25.7563 24.2187 26.3938 24.2187 26.5188C24.2187 26.625 23.4812 26.8063 23 26.8063C22.1625 26.8125 21.5562 26.55 20.8937 25.9C20.6437 25.6563 20.4375 25.425 20.4375 25.3875C20.4375 25.35 20.5562 25.2813 20.7062 25.2438C21.3687 25.0625 22.0875 25.0563 22.625 25.2375ZM26.2187 26.3125C26.4875 26.3813 26.775 26.4375 26.8562 26.4375H27V27.9063C27 28.7125 26.9875 29.375 26.975 29.375C26.9562 29.375 26.6312 28.7625 26.2437 28.0125C25.8562 27.2688 25.4562 26.5125 25.3437 26.3438C25.2375 26.1688 25.1312 26 25.1062 25.9563C25.0812 25.9125 25.2062 25.95 25.3937 26.0313C25.5812 26.1188 25.95 26.2438 26.2187 26.3125Z" fill="#008080"/>
<path d="M1.00628 8.0875C0.112532 8.4125 -0.268718 9.56875 0.262532 10.325C0.381282 10.5 0.381282 10.5 0.262532 10.6688C-0.162468 11.2812 -0.0374683 12.1312 0.562532 12.6375C0.700032 12.7562 0.918782 12.8875 1.05628 12.925C1.23128 12.9812 2.91253 13 7.24378 13H13.1938L13.3438 12.8438C13.55 12.6437 13.55 12.3562 13.3438 12.1562L13.1938 12H7.25003H1.30628L1.15628 11.8438C0.950032 11.6437 0.950032 11.3562 1.15628 11.1562L1.30628 11H3.50003H5.69378L5.84378 10.8438C6.05003 10.6437 6.05003 10.3563 5.84378 10.1562L5.69378 10H3.50003H1.30628L1.15628 9.84375C0.950032 9.64375 0.950032 9.35625 1.15628 9.15625L1.30628 9H12.25H23.1938L23.3438 8.84375C23.55 8.64375 23.55 8.35625 23.3438 8.15625L23.1938 8L12.2063 8.00625C3.74378 8.00625 1.16878 8.025 1.00628 8.0875Z" fill="#008080"/>
<path d="M7.15635 10.1562C6.84385 10.4625 7.0626 11 7.5001 11C7.75635 11 8.0001 10.7562 8.0001 10.5C8.0001 10.2437 7.75635 10 7.5001 10C7.38135 10 7.2501 10.0562 7.15635 10.1562Z" fill="#008080"/>
<path d="M9.15625 10.1562C9.05625 10.25 9 10.3812 9 10.5C9 10.6187 9.05625 10.75 9.15625 10.8437L9.30625 11H11.75H14.1937L14.3438 10.8437C14.4437 10.75 14.5 10.6187 14.5 10.5C14.5 10.3812 14.4437 10.25 14.3438 10.1562L14.1937 10H11.75H9.30625L9.15625 10.1562Z" fill="#008080"/>
<path d="M1.36255 14.0687C1.1813 14.1687 1.1313 14.3187 1.00005 15.1625C0.525049 18.0812 0.431299 19.6312 0.556299 22.7187C0.637549 24.7437 0.706299 25.7062 0.850049 26.725L0.950049 27.425L0.475049 28.1312C-0.0687009 28.9437 -0.106201 29.1187 0.150049 29.6562C0.443799 30.2812 0.993799 30.625 1.68755 30.6187C1.91255 30.6187 2.1438 30.5937 2.21255 30.5687C2.27505 30.5437 2.88755 30.6375 3.65005 30.7937C11.2688 32.3312 16.225 32.3625 23.7125 30.9125C24.8688 30.6875 25 30.6187 25 30.2375C25 30.0437 24.7625 29.75 24.5938 29.75C24.5438 29.75 23.8813 29.8625 23.1313 30C21.4063 30.3125 19.55 30.5812 18.0625 30.7437C13.8813 31.1937 11.1438 31.0437 5.56255 30.0562C2.52505 29.5187 2.4563 29.5125 1.82505 29.6C1.43755 29.65 1.22505 29.5625 1.08755 29.3062C1.0063 29.1437 1.0188 29.1125 1.4063 28.55C2.03755 27.6437 2.0188 27.7125 1.87505 26.7375C1.71255 25.6125 1.63755 24.6875 1.56255 22.9062C1.4813 20.9687 1.4813 19.2437 1.56255 18.4312C1.62505 17.8187 2.02505 14.9625 2.10005 14.5625C2.1313 14.4125 2.1063 14.3437 1.95005 14.1875C1.7563 13.9937 1.5563 13.9562 1.36255 14.0687Z" fill="#008080"/>
</svg>
