<svg width="63" height="63" viewBox="0 0 63 63" fill="none" xmlns="http://www.w3.org/2000/svg">
<circle cx="31.5" cy="31.5" r="31" stroke="#008080" stroke-opacity="0.5"/>
<path d="M42.8469 33.6403C42.8469 33.2885 42.761 32.909 42.5645 32.5258C42.6125 32.3664 42.647 32.2055 42.6733 32.0443C42.7595 31.9929 42.8439 31.9299 42.9193 31.8463C43.4218 31.2864 43.2418 30.197 43.0899 29.5974C43.0742 29.5376 43.0505 29.4802 43.0194 29.4268C43.0655 29.2573 43.0899 29.0803 43.0899 28.8954C43.0903 24.4036 38.1155 20.75 32 20.75C25.8845 20.75 20.9098 24.4036 20.9098 28.8954C20.9098 29.0799 20.9345 29.2573 20.9803 29.4268C20.9494 29.4799 20.9259 29.5369 20.9101 29.5963C20.7583 30.1955 20.5783 31.283 21.0785 31.8421C21.128 32.1418 21.2113 32.4429 21.338 32.741C21.219 33.0259 21.1564 33.3312 21.1539 33.6399C21.1539 33.9264 21.1809 34.2043 21.23 34.4758C21.0409 34.9179 20.9427 35.3936 20.9413 35.8745C20.9416 39.2394 22.8601 43.25 32 43.25C41.1399 43.25 43.0584 39.2394 43.0584 35.8749C43.057 35.3941 42.9589 34.9186 42.77 34.4765C42.8195 34.205 42.8469 33.9268 42.8469 33.6403V33.6403ZM42.3403 28.8954C42.3403 30.7888 38.1849 32.0607 32 32.0607C25.8151 32.0607 21.6598 30.7884 21.6598 28.8954C21.6598 24.8041 26.2985 21.476 32 21.476C37.7015 21.476 42.3403 24.8041 42.3403 28.8954V28.8954ZM32 42.524C25.1596 42.524 21.6913 40.2871 21.6913 35.8749C21.6913 35.8344 21.692 35.7935 21.6939 35.753C23.0874 38.5419 26.5464 39.9537 32.0004 39.9537C37.454 39.9537 40.9123 38.5423 42.3061 35.7541C42.3076 35.7943 42.3084 35.8348 42.3084 35.8749C42.3084 40.2875 38.8404 42.524 32 42.524ZM42.2941 33.4272L42.29 33.4194L42.2716 33.4872C41.3701 35.7155 38.5393 37.2579 33.0174 37.4247L31.1926 39.2139C31.1386 39.2127 31.082 39.2127 31.0284 39.2112L29.0195 37.2954C24.7906 36.8566 22.5268 35.4425 21.7329 33.5037L21.71 33.4197L21.7033 33.434C21.695 33.4126 21.6845 33.3924 21.6766 33.371C22.2714 34.3025 23.3008 35.1785 24.9144 35.8655C26.1804 36.4047 27.3031 36.6147 28.277 36.587L26.7215 35.1035C26.2309 34.9774 25.7507 34.8137 25.2853 34.6138C24.7317 34.3811 24.2018 34.0955 23.7031 33.761C23.8254 33.8045 23.9533 33.8341 24.0931 33.8341C24.3916 33.8341 24.6804 33.7325 24.935 33.6425C25.0123 33.6155 25.1225 33.5765 25.2103 33.5518C25.2493 33.6204 25.2928 33.7051 25.3258 33.7704C25.5125 34.1364 25.7675 34.6366 26.3041 34.7911C26.4013 34.8185 26.5029 34.8328 26.6068 34.8328C26.9979 34.8328 27.335 34.6374 27.6324 34.4653C27.7029 34.424 27.7966 34.37 27.8735 34.3314C27.9234 34.3925 27.9796 34.4694 28.0228 34.5283C28.2631 34.8545 28.5924 35.3015 29.1358 35.3724C29.1826 35.3788 29.2288 35.3814 29.2753 35.3814C29.7395 35.3814 30.1066 35.0908 30.4018 34.8568C30.464 34.8073 30.5454 34.7424 30.614 34.6936C30.6721 34.7484 30.7393 34.8174 30.791 34.8706C31.0873 35.1755 31.4563 35.5557 32.0004 35.5557C32.5445 35.5557 32.9131 35.1759 33.2098 34.8706C33.2615 34.8174 33.3283 34.7484 33.3868 34.6936C33.4558 34.7424 33.5368 34.8073 33.599 34.8564C33.8938 35.0904 34.2613 35.3814 34.7255 35.3814C34.7716 35.3814 34.8185 35.3784 34.8643 35.3727C34.9883 35.3563 35.1089 35.3195 35.2209 35.2636L34.3336 36.134C35.2981 36.3586 36.4685 36.3688 37.8609 36.0646C40.6198 35.4624 42.026 34.1161 42.5203 32.6551C42.4692 32.919 42.3935 33.1775 42.2941 33.4272V33.4272ZM22.115 32.2302L22.1653 32.2306C22.2515 32.2306 22.3415 32.2272 22.4323 32.2246C22.5073 32.2216 22.5826 32.2186 22.6565 32.2186C22.6944 32.2186 22.7251 32.2198 22.7503 32.2209C22.7728 32.2963 22.796 32.3926 22.8136 32.4661C22.8811 32.7448 22.9689 33.092 23.1778 33.3718C22.7364 33.0091 22.3835 32.6259 22.115 32.2302V32.2302ZM35.4661 35.1031C35.6746 34.9351 35.8366 34.7191 35.978 34.5275C36.0219 34.4686 36.0785 34.3918 36.128 34.3306C36.2045 34.3696 36.2975 34.4232 36.3684 34.4645C36.6654 34.637 37.0018 34.832 37.3933 34.832C37.4968 34.832 37.5988 34.8178 37.6959 34.7904C38.2325 34.6359 38.4879 34.1352 38.6743 33.7692C38.7076 33.704 38.7508 33.6196 38.7898 33.5514C38.8775 33.5758 38.9881 33.6151 39.065 33.6421C39.32 33.7318 39.6084 33.8337 39.9073 33.8337C39.9901 33.8337 40.0685 33.8221 40.1458 33.8068C39.4393 34.2601 38.5385 34.6329 37.4075 34.8796C36.7699 35.0215 36.1193 35.0964 35.4661 35.1031V35.1031ZM40.937 33.1925C41.0656 32.9529 41.132 32.6889 41.1856 32.4676C41.2033 32.3945 41.2265 32.2978 41.2486 32.2228C41.2734 32.2213 41.3038 32.2205 41.3405 32.2205C41.4148 32.2205 41.4909 32.2235 41.5666 32.2258C41.6165 32.2276 41.6645 32.228 41.7136 32.2295C41.5011 32.5853 41.2397 32.9094 40.937 33.1925V33.1925ZM42.3781 31.3614C42.2698 31.4818 42.0669 31.5065 41.8363 31.5065C41.6773 31.5065 41.5044 31.4949 41.3413 31.4949C41.1196 31.4949 40.9138 31.5162 40.7773 31.616C40.4304 31.8699 40.5174 32.8464 40.0978 33.0669C40.0419 33.0958 39.9781 33.1081 39.9076 33.1081C39.5548 33.1081 39.047 32.8018 38.6731 32.8014C38.6116 32.8001 38.5504 32.8106 38.4928 32.8321C38.0855 32.9919 37.9426 33.9643 37.4945 34.0929C37.4617 34.1021 37.4277 34.1067 37.3936 34.1064C36.9991 34.1064 36.458 33.5581 36.0455 33.5581C36.0174 33.5581 35.99 33.5607 35.9626 33.566C35.5291 33.6537 35.2288 34.5916 34.7701 34.652C34.7555 34.6535 34.7401 34.6546 34.7255 34.6546C34.3006 34.6546 33.7948 33.9106 33.3553 33.9106L33.3316 33.9114C32.8861 33.9395 32.4609 34.829 32.0008 34.829C31.5403 34.829 31.1158 33.9395 30.6703 33.9114C30.6623 33.9109 30.6543 33.9107 30.6463 33.9106C30.2068 33.9106 29.7005 34.6546 29.276 34.6546C29.2611 34.6547 29.2462 34.6538 29.2314 34.652C28.7728 34.5916 28.4735 33.6537 28.0389 33.566C28.0116 33.5605 27.9838 33.5579 27.956 33.5581C27.5435 33.5581 27.002 34.1064 26.6071 34.1064C26.573 34.1067 26.5391 34.1021 26.5063 34.0929C26.0578 33.9639 25.9149 32.9911 25.5073 32.8321C25.4496 32.8106 25.3884 32.8002 25.3269 32.8014C24.9534 32.8014 24.4464 33.1077 24.0935 33.1077C24.023 33.1077 23.9585 33.0954 23.9023 33.0661C23.483 32.8449 23.5689 31.8684 23.2231 31.6153C23.0855 31.5144 22.8789 31.4934 22.6569 31.4934C22.4941 31.4934 22.3231 31.505 22.1653 31.505C21.9335 31.505 21.7299 31.4806 21.6215 31.3591C21.4505 31.1686 21.4621 30.7258 21.5094 30.3564C23.1114 32.1204 27.6748 32.7864 32.0004 32.7864C36.3264 32.7864 40.8894 32.1204 42.491 30.3564C42.5383 30.7265 42.5495 31.1701 42.3781 31.3614" fill="#008080"/>
<path d="M25.6164 25.8387L25.0486 25.2942L24.4809 25.8387L25.0486 26.3828L25.6164 25.8387ZM27.8476 25.4885L28.415 24.944L27.8476 24.3995L27.2799 24.944L27.8476 25.4885ZM30.0035 27.4298L29.4361 26.8853L28.8684 27.4298L29.4361 27.974L30.0035 27.4298ZM31.9659 25.4761L31.5879 25.1131L31.2091 25.4761L31.5879 25.8387L31.9659 25.4761ZM38.2426 26.8853L38.6214 27.248L39.0001 26.8853L38.6214 26.5227L38.2426 26.8853ZM41.2981 27.248L40.9198 26.8853L40.541 27.248L40.9198 27.611L41.2981 27.248ZM36.926 24.581L36.548 24.218L36.1693 24.581L36.548 24.944L36.926 24.581ZM25.478 24.1276L25.1 23.7646L24.7213 24.1276L25.1 24.4906L25.478 24.1276ZM23.459 25.8387L23.0806 25.4761L22.7023 25.8387L23.0806 26.2017L23.459 25.8387ZM25.0486 28.235L25.4274 28.598L25.8054 28.235L25.4274 27.872L25.0486 28.235ZM30.1925 22.676L29.8145 22.313L29.4361 22.676L29.8145 23.039L30.1925 22.676ZM33.7648 22.313L33.3868 21.95L33.008 22.313L33.3868 22.676L33.7648 22.313ZM27.8473 23.039L27.4693 22.676L27.0909 23.039L27.4693 23.4016L27.8473 23.039ZM38.5966 23.9003L38.2186 23.5377L37.8399 23.9003L38.2186 24.2633L38.5966 23.9003ZM33.9545 29.0048L34.5219 28.4603L33.9545 27.9158L33.3864 28.4603L33.9545 29.0048ZM33.6328 25.6696L33.0654 25.1255L32.4976 25.6696L33.0654 26.2141L33.6328 25.6696ZM35.7241 23.5831L35.1568 23.039L34.5886 23.5831L35.1568 24.1276L35.7241 23.5831ZM36.2251 25.9122L36.7925 26.4567L37.3603 25.9122L36.7925 25.3677L36.2251 25.9122ZM39.7569 25.1255L39.1891 24.581L38.6214 25.1255L39.1891 25.6696L39.7569 25.1255ZM37.3603 28.8575L37.928 28.3133L37.3603 27.7688L36.7925 28.3133L37.3603 28.8575ZM23.0803 27.3713L23.6484 27.9158L24.2158 27.3713L23.6484 26.8272L23.0803 27.3713Z" fill="#008080"/>
</svg>
