<svg width="63" height="63" viewBox="0 0 63 63" fill="none" xmlns="http://www.w3.org/2000/svg">
<circle cx="31.5" cy="31.5" r="31" stroke="#008080" stroke-opacity="0.5"/>
<path d="M41.9509 24.9735C38.5103 22.6789 35.2583 21.5431 32.0097 21.5012C28.72 21.4606 25.475 22.4713 22.0878 24.5964C21.7561 24.8026 21.5184 25.1306 21.4257 25.5101C21.3331 25.8895 21.3929 26.2902 21.5923 26.6261L30.7135 42.166C30.8443 42.3914 31.0319 42.5784 31.2577 42.7084C31.4835 42.8384 31.7395 42.9068 32 42.9067H32.0075C32.2668 42.908 32.5218 42.8414 32.7474 42.7137C32.973 42.5859 33.1612 42.4014 33.2935 42.1784L42.4044 26.9934C42.6033 26.663 42.6671 26.2687 42.5827 25.8925C42.4982 25.5163 42.2719 25.1871 41.9509 24.9735ZM41.1182 26.2215L32.0071 41.4067L22.885 25.867C25.9582 23.9389 28.8807 23 31.8129 23C31.872 23 31.9312 23.0004 31.9904 23.0012C34.9404 23.0392 37.9263 24.0927 41.1187 26.2215H41.1182Z" fill="#008080"/>
<path d="M30.4801 30.8509C30.4356 30.5977 30.317 30.3634 30.1393 30.1776C29.9616 29.9918 29.7328 29.8628 29.4818 29.8071C29.2308 29.7513 28.9689 29.7712 28.7293 29.8643C28.4896 29.9574 28.2829 30.1194 28.1354 30.33C27.9878 30.5405 27.906 30.7901 27.9003 31.0471C27.8946 31.3041 27.9652 31.5571 28.1033 31.774C28.2413 31.9909 28.4406 32.162 28.6759 32.2656C28.9111 32.3693 29.1719 32.4008 29.4251 32.3562C29.7646 32.2965 30.0665 32.1044 30.2643 31.8221C30.4622 31.5398 30.5398 31.1905 30.4801 30.8509Z" fill="#008080"/>
<path d="M35.2715 34.2879C35.8163 33.8204 35.8791 32.9998 35.4116 32.4549C34.9442 31.91 34.1235 31.8473 33.5787 32.3147C33.0338 32.7822 32.971 33.6028 33.4385 34.1477C33.906 34.6926 34.7266 34.7553 35.2715 34.2879Z" fill="#008080"/>
<path d="M30.0198 35.9526L30.9801 34.8003L33.2301 36.6753L32.2698 37.8276L30.0198 35.9526ZM31.7366 29.0491L34.7366 27.9241L35.2633 29.3286L32.2633 30.4536L31.7366 29.0491Z" fill="#008080"/>
<path d="M25.6484 28.5116C27.2088 27.5326 29.6115 26.3754 32.2493 26.3754C32.2878 26.3754 32.3265 26.3757 32.3652 26.3762C34.5625 26.4043 36.5782 27.0793 38.7087 28.5002L39.541 27.2523C37.1585 25.6636 34.8845 24.9085 32.3845 24.8763C29.3352 24.8386 26.6054 26.1406 24.8516 27.2409L25.6484 28.5116Z" fill="#008080"/>
</svg>
