<svg xmlns="http://www.w3.org/2000/svg" width="23.242" height="22.137" viewBox="0 0 23.242 22.137">
  <path id="check_icon" d="M149.123,66.843a.368.368,0,0,0-.227-.067,3.528,3.528,0,0,0-1.3.5,13.8,13.8,0,0,0-1.433.879,28.741,28.741,0,0,0-5.239,4.884,50.926,50.926,0,0,0-4.57,6.288l0,0c-.012.02-.024.04-.037.059a.06.06,0,0,1-.052.028.056.056,0,0,1-.054-.034l-.01-.022-.013-.018a29.643,29.643,0,0,0-3.42-4.053,1.738,1.738,0,0,0-1.2-.482,1.744,1.744,0,0,0-1.5.852l-.031.053a1.749,1.749,0,0,0,.382,2.239,33.826,33.826,0,0,1,5.463,6.485l.236.333a.482.482,0,0,0,.831-.077c2.176-4.7,5.707-11.518,11.224-16.487l.009-.008.008-.009a3.283,3.283,0,0,1,.335-.306,1.98,1.98,0,0,0,.676-.806l.047-.143Zm-2.442,5.381a.527.527,0,0,0-.915.524,10.013,10.013,0,1,1-3.277-3.453.527.527,0,1,0,.571-.886,11.073,11.073,0,1,0,3.621,3.815Z" transform="translate(-126.001 -66.649)" fill="#d99818"/>
</svg>
