<svg width="63" height="63" viewBox="0 0 63 63" fill="none" xmlns="http://www.w3.org/2000/svg">
<circle cx="31.5" cy="31.5" r="31" stroke="#008080" stroke-opacity="0.5"/>
<g clip-path="url(#clip0_299_2010)">
<path d="M40.5828 24.2459C40.0156 24.4525 39.7203 25.0866 39.8469 25.8474L39.8844 26.0823L38.8438 26.8337C38.225 27.2846 37.775 27.5758 37.7281 27.5664C37.6859 27.557 37.5125 27.5476 37.3438 27.5476C37.0672 27.5429 36.9969 27.5664 36.5469 27.7918C35.3844 28.3883 34.9063 28.4916 32.75 28.6419C31.6859 28.7124 30.9688 28.9425 30.2234 29.4451C29.5531 29.8913 28.9438 30.5958 28.625 31.2862C27.8984 32.8549 28.1469 34.6255 29.2719 35.8748L29.5672 36.2036H27.3266C25.1047 36.2036 25.0813 36.2036 24.6641 36.0909C23.3563 35.7386 22.5031 35.2455 21.8984 34.4893C21.0734 33.4654 20.9188 31.7981 21.4859 30.1026C21.9313 28.7687 22.8219 27.5147 23.9609 26.6177C25.3156 25.5468 26.8578 25.0208 28.6203 25.0255C30.875 25.0255 32.9703 25.7253 35.0141 27.1625C35.2156 27.3034 35.4219 27.4208 35.4734 27.4208C35.6141 27.4208 35.7969 27.2142 35.7969 27.0545C35.7969 26.8572 35.4406 26.5613 34.5781 26.0353C32.0516 24.4995 28.9859 23.9359 26.5531 24.5605C23.7078 25.2838 21.3641 27.6134 20.6609 30.4032C20.3703 31.5539 20.3844 32.8267 20.6984 33.7237C21.0266 34.6772 21.7016 35.485 22.6156 36.0204L22.9297 36.2036H21.8469C20.7734 36.2036 20.7688 36.2036 20.5203 36.3257C20.1547 36.5089 20 36.7719 20 37.2087C20 37.622 20.1359 37.8803 20.4594 38.0682C20.6703 38.195 20.7125 38.1997 21.4766 38.2232L22.2734 38.2466L22.4328 38.6412C22.6438 39.1531 22.9672 39.5147 23.3844 39.7073L23.6797 39.8435H31.9531H40.2266L40.5219 39.7073C40.9391 39.5147 41.2625 39.1531 41.4734 38.6412L41.6328 38.2466L42.4344 38.2232C43.2219 38.1997 43.2359 38.1997 43.4609 38.0588C43.7797 37.8615 43.9719 37.5046 43.9438 37.157C43.9156 36.8001 43.7141 36.4995 43.3953 36.3351L43.1469 36.2036H41.2156L39.2891 36.1989L39.6406 36.0674C40.8547 35.6165 41.6188 35.0858 41.9141 34.494C42.1438 34.029 42.0359 33.3809 41.6422 32.9394C41.3891 32.6435 41.1078 32.4697 40.3672 32.1457C40.0344 31.9954 39.6266 31.8028 39.4672 31.7136C39.3078 31.6243 39.1297 31.5539 39.0688 31.5539C38.9141 31.5539 38.75 31.737 38.75 31.9108C38.75 32.1551 38.9375 32.2819 39.9641 32.7327C40.3625 32.9112 40.7703 33.1085 40.8641 33.1742C41.1453 33.3574 41.2953 33.5922 41.3188 33.8787C41.3375 34.0995 41.3234 34.1558 41.2063 34.3155C40.7422 34.9637 39.1625 35.6165 36.9922 36.0674C36.4625 36.1754 36.2188 36.2036 35.7266 36.2036H35.1172L35.3844 35.9641C35.975 35.4427 36.4203 34.7053 36.8281 33.5734C37.2922 32.2819 37.7469 31.5116 38.5391 30.6756C39.0031 30.1824 39.1672 29.91 39.1719 29.6282C39.1766 29.4686 39.2094 29.4357 40.1 28.7781C41.3703 27.8341 41.2063 27.914 41.5531 28.083C42.3922 28.501 43.25 28.1394 43.4281 27.294C43.5688 26.6505 43.1375 25.9507 42.5 25.777L42.3266 25.73L42.3031 25.4106C42.2656 24.8987 41.9984 24.5042 41.5438 24.2928C41.2766 24.166 40.8547 24.1472 40.5828 24.2459ZM41.4125 25.0443C41.5813 25.204 41.5859 25.2134 41.5906 25.575C41.5953 26.0963 41.5953 26.0823 41.75 26.2419C41.8531 26.3406 41.9563 26.3922 42.1156 26.4157C42.4344 26.458 42.6219 26.5895 42.7109 26.8337C42.8516 27.2001 42.6734 27.5053 42.2984 27.5476C42.1344 27.5664 42.0406 27.5429 41.7922 27.4208C41.4641 27.2517 41.1125 27.2142 40.9062 27.3269C40.8125 27.3785 39.6828 28.2005 39.0031 28.7218L38.8578 28.8298L38.5859 28.4729C38.4219 28.2521 38.3375 28.0971 38.3609 28.0736C38.3891 28.0455 38.8484 27.7073 39.3875 27.3128C40.2594 26.674 40.3813 26.5754 40.4797 26.3687C40.5875 26.148 40.5922 26.1198 40.5406 25.7723C40.4516 25.1664 40.6063 24.8846 41.0281 24.8846C41.1969 24.8846 41.2672 24.9128 41.4125 25.0443ZM37.5406 28.2756C37.7047 28.4071 38.4688 29.5061 38.4688 29.6142C38.4688 29.6893 38.3328 29.8725 38.0234 30.1965C37.7797 30.4549 37.4375 30.8635 37.2688 31.0983C36.8984 31.6243 36.4344 32.5543 36.1719 33.3151C35.6844 34.7382 35.0516 35.5367 33.9828 36.0815L33.7391 36.2036H32.3234H30.9125L30.6406 36.058C29.3844 35.3911 28.6906 33.8975 28.9719 32.4932C29.2297 31.2298 29.9844 30.2764 31.1797 29.7175C31.7234 29.4592 32.2531 29.3605 33.3359 29.3042C34.2781 29.2525 34.8594 29.1727 35.3984 29.013C35.8953 28.8721 36.5422 28.6091 36.9031 28.4071C37.2406 28.2145 37.4141 28.1817 37.5406 28.2756ZM43.1422 37.0114C43.2781 37.1382 43.2781 37.2697 43.1469 37.4106L43.0484 37.5187H35.1875C27.3453 37.5187 27.3313 37.5187 27.2281 37.6126C27.0641 37.7629 27.0734 37.9601 27.2469 38.1151L27.3641 38.2232H34.1141H40.8641L40.8359 38.3265C40.7281 38.6928 40.4094 39.0216 40.0672 39.1155C39.8328 39.1813 24.0734 39.1813 23.8391 39.1155C23.4969 39.0216 23.1781 38.6928 23.0703 38.3265L23.0422 38.2232H24.4719C25.8875 38.2232 25.9016 38.2232 26.0188 38.1151C26.1922 37.9601 26.2016 37.7629 26.0375 37.6126C25.9391 37.5187 25.8875 37.5187 23.4031 37.5187H20.8719L20.7641 37.4153C20.6281 37.2885 20.6281 37.157 20.7594 37.0161L20.8578 36.9081H31.9484H43.0344L43.1422 37.0114Z" fill="#008080"/>
</g>
<defs>
<clipPath id="clip0_299_2010">
<rect width="24" height="24" fill="white" transform="translate(20 20)"/>
</clipPath>
</defs>
</svg>
