<svg width="16" height="16" viewBox="0 0 16 16" fill="none" xmlns="http://www.w3.org/2000/svg">
<path d="M8.00004 2.98657C7.49635 2.98657 7.00398 3.13593 6.58518 3.41576C6.16639 3.69559 5.83997 4.09333 5.64722 4.55867C5.45447 5.02401 5.40404 5.53606 5.5023 6.03007C5.60057 6.52407 5.84311 6.97785 6.19927 7.334C6.55543 7.69016 7.0092 7.93271 7.50321 8.03097C7.99721 8.12924 8.50926 8.0788 8.9746 7.88605C9.43995 7.6933 9.83768 7.36689 10.1175 6.94809C10.3973 6.52929 10.5467 6.03692 10.5467 5.53324C10.5467 4.85782 10.2784 4.21007 9.8008 3.73247C9.32321 3.25488 8.67546 2.98657 8.00004 2.98657ZM8.00004 7.19102C7.67216 7.19102 7.35165 7.09379 7.07902 6.91163C6.8064 6.72947 6.59392 6.47056 6.46845 6.16764C6.34298 5.86472 6.31015 5.5314 6.37411 5.20982C6.43808 4.88825 6.59597 4.59286 6.82781 4.36101C7.05966 4.12917 7.35504 3.97128 7.67662 3.90731C7.9982 3.84335 8.33152 3.87618 8.63444 4.00165C8.93736 4.12713 9.19627 4.33961 9.37843 4.61223C9.56059 4.88485 9.65781 5.20536 9.65781 5.53324C9.65664 5.97214 9.48146 6.39266 9.17069 6.70259C8.85993 7.01253 8.43894 7.18657 8.00004 7.18657V7.19102Z" fill="#008080"/>
<path d="M7.99996 0.888916C6.6156 0.890072 5.28795 1.439 4.30699 2.4158C3.32602 3.39261 2.77145 4.71791 2.7644 6.10225C2.7644 8.1778 3.92885 9.91558 4.78218 11.1822L4.93774 11.4134C5.78675 12.6439 6.69755 13.8306 7.66663 14.9689L8.0044 15.3645L8.34218 14.9689C9.31114 13.8305 10.2219 12.6438 11.0711 11.4134L11.2266 11.1778C12.0755 9.91114 13.24 8.1778 13.24 6.10225C13.2329 4.71714 12.6777 3.39117 11.6958 2.41424C10.7139 1.43731 9.38509 0.888898 7.99996 0.888916ZM10.4844 10.6667L10.3244 10.9022C9.55996 12.0489 8.54663 13.3334 7.99996 13.9689C7.47552 13.3334 6.43996 12.0489 5.67552 10.9022L5.51996 10.6667C4.73329 9.49336 3.65329 7.88892 3.65329 6.08447C3.65329 5.51366 3.76572 4.94844 3.98416 4.42107C4.2026 3.89371 4.52278 3.41454 4.9264 3.01091C5.33003 2.60729 5.8092 2.28712 6.33656 2.06868C6.86392 1.85023 7.42915 1.7378 7.99996 1.7378C8.57077 1.7378 9.136 1.85023 9.66336 2.06868C10.1907 2.28712 10.6699 2.60729 11.0735 3.01091C11.4771 3.41454 11.7973 3.89371 12.0158 4.42107C12.2342 4.94844 12.3466 5.51366 12.3466 6.08447C12.3466 7.90669 11.2711 9.51114 10.4844 10.6667Z" fill="#008080"/>
</svg>
