<svg width="63" height="63" viewBox="0 0 63 63" fill="none" xmlns="http://www.w3.org/2000/svg">
<circle cx="31.5" cy="31.5" r="31" stroke="#008080" stroke-opacity="0.5"/>
<path d="M30.6547 20.9188C25.5406 21.5375 21.5141 25.5969 20.9141 30.7344C20.525 34.0344 21.6547 37.3484 23.9844 39.7484C25.7844 41.6094 28.0484 42.7484 30.6172 43.0859C31.3484 43.1797 32.6937 43.1797 33.425 43.0859C37.1328 42.5984 40.3156 40.3484 41.9703 37.0438C42.8 35.3891 43.1609 33.8703 43.1609 32.0234C43.1609 30.6969 43.0016 29.7125 42.5891 28.4609C41.3656 24.7813 38.2203 21.9453 34.4328 21.1063C33.2797 20.8484 31.8125 20.7781 30.6547 20.9188ZM33.0828 21.4531C37.1984 21.8703 40.7375 24.7109 42.0547 28.6438C42.4156 29.7266 42.5937 30.8328 42.5937 32.0047C42.5937 32.7219 42.5141 33.5094 42.4391 33.5563C42.4062 33.575 42.275 33.5938 42.1391 33.5938C41.9469 33.5938 41.8672 33.5703 41.7453 33.4672C41.4828 33.2469 41.4687 33.1578 41.4687 31.8313C41.4687 31.0391 41.45 30.5656 41.4125 30.4438C41.3375 30.1906 41 29.825 40.7562 29.7266C40.325 29.5531 39.7812 29.6609 39.4625 29.9797C39.1297 30.3172 39.1531 30.0547 39.125 33.9078C39.1016 37.325 39.1016 37.3859 39.0031 37.5125C38.8391 37.7328 38.675 37.8266 38.4547 37.8266C38.1875 37.8266 37.9719 37.6953 37.8594 37.4609C37.7703 37.2781 37.7656 37.1656 37.7656 35.4359C37.7656 33.4344 37.7609 33.3781 37.4891 33.0359C37.325 32.8297 36.9781 32.6328 36.6922 32.5859L36.4859 32.5531L36.5187 32.2625C36.5797 31.6625 36.4016 30.7438 36.1016 30.0969C35.0609 27.8422 32.3562 26.8531 30.1016 27.8938C28.7094 28.5359 27.6641 29.9609 27.5234 31.4047C27.4812 31.8406 27.4672 31.8875 27.3359 31.9438C27.0453 32.075 26.6609 31.9484 26.4922 31.6672C26.4078 31.5219 26.3937 31.3953 26.375 30.3594C26.3562 29.6422 26.3281 29.1641 26.2953 29.0844C26.2109 28.8922 25.9109 28.5828 25.7047 28.4797C25.1375 28.1891 24.4297 28.4141 24.0875 28.9906L23.9609 29.2109L23.9375 31.3672C23.9187 32.9281 23.9 33.5516 23.8578 33.6219C23.7125 33.8703 23.3141 33.9688 23.0703 33.8094C22.8078 33.6406 22.7891 33.5609 22.7656 32.5156C22.7422 31.6344 22.7328 31.5359 22.6391 31.3578C22.4656 31.0344 22.1375 30.8281 21.7297 30.7859L21.4719 30.7578L21.5281 30.3453C21.9453 27.4859 23.7172 24.7531 26.2156 23.1266C27.6641 22.1797 29.1781 21.6547 31.0859 21.4344C31.4187 21.3969 32.6375 21.4109 33.0828 21.4531ZM32.8484 28.1328C33.5516 28.2734 34.25 28.6578 34.7937 29.2063C35.5766 29.9891 35.9516 30.9172 35.9469 32.0469C35.9375 33.8891 34.6812 35.4406 32.8578 35.8719C32.3844 35.9844 31.5172 35.9703 31.0391 35.8484C29.6328 35.4734 28.5172 34.3625 28.1516 32.9609C28.0156 32.4359 28.0156 31.5641 28.1516 31.0391C28.5125 29.675 29.525 28.6109 30.8609 28.2031C31.4891 28.0156 32.1453 27.9875 32.8484 28.1328ZM25.4047 28.9719C25.4891 29.0047 25.6062 29.0938 25.6719 29.1594C25.7891 29.2859 25.7891 29.2906 25.8125 30.4438C25.8359 31.6016 25.8359 31.6016 25.9719 31.8734C26.2016 32.3469 26.675 32.6047 27.2094 32.5484L27.4812 32.5203L27.5844 32.975C27.7812 33.8422 28.1609 34.5313 28.7891 35.1688C29.6656 36.0641 30.7437 36.5141 32 36.5141C33.2047 36.5141 34.2453 36.0969 35.1312 35.2625C35.6375 34.7844 36.0125 34.2078 36.2656 33.5C36.4156 33.0969 36.4719 33.0641 36.8 33.2094C37.1891 33.3828 37.175 33.3078 37.2031 35.5156C37.2266 37.3672 37.2312 37.4703 37.325 37.6719C37.7 38.4734 38.7266 38.6422 39.3266 38.0047C39.6969 37.6063 39.6875 37.7375 39.6875 33.9453C39.6875 30.8844 39.6922 30.6031 39.7672 30.5C40.0156 30.1391 40.4469 30.1016 40.7469 30.4109L40.8828 30.5516L40.9062 31.8969C40.9344 33.425 40.9484 33.5047 41.3187 33.8375C41.5719 34.0672 41.7969 34.1563 42.1062 34.1563C42.4156 34.1563 42.4156 34.1422 42.2 34.8922C41.6703 36.7344 40.7516 38.2625 39.3781 39.5938C37.3625 41.5438 34.7844 42.5938 32 42.5938C28.1609 42.5938 24.7016 40.5688 22.7516 37.1797C21.8844 35.6703 21.3734 33.6688 21.4156 31.9531L21.4297 31.3672L21.6031 31.3531C21.8047 31.3344 22.0344 31.4422 22.1281 31.5922C22.1797 31.6719 22.1984 31.925 22.2125 32.6328C22.2266 33.3922 22.2453 33.6078 22.3156 33.7578C22.5828 34.3766 23.3094 34.6297 23.8906 34.3156C24.0266 34.2406 24.1859 34.1188 24.2469 34.0391C24.4953 33.7156 24.5 33.65 24.5 31.4375V29.3891L24.6078 29.2297C24.7203 29.0563 24.9734 28.9063 25.1469 28.9063C25.2031 28.9063 25.3203 28.9344 25.4047 28.9719Z" fill="#008080"/>
<path d="M30.3359 22.5407C29.5953 22.8078 29.464 22.8828 29.3562 23.1125C29.2062 23.4313 29.2812 23.7641 29.5578 23.9985C29.8203 24.2141 29.975 24.2047 30.7953 23.9188C31.1984 23.7782 31.5922 23.6188 31.6672 23.5672C31.8078 23.4641 31.9531 23.1688 31.9531 22.9813C31.9531 22.7985 31.7515 22.475 31.5781 22.386C31.3203 22.2453 31.0625 22.2782 30.3359 22.5407ZM31.3625 22.9297C31.4187 23.075 31.3156 23.1407 30.6547 23.3703C29.9375 23.6235 29.8203 23.6282 29.8531 23.4032C29.8625 23.3235 29.9844 23.2625 30.4765 23.0844C31.1281 22.85 31.3156 22.8172 31.3625 22.9297Z" fill="#008080"/>
<path d="M27.275 22.8593C26.961 23.0515 26.8438 23.4734 27.0125 23.8249C27.2375 24.2937 27.9547 24.3499 28.2594 23.9234C28.4094 23.7171 28.4281 23.3093 28.3016 23.1031C28.161 22.8828 27.9406 22.7656 27.6641 22.7656C27.5141 22.7656 27.3735 22.7984 27.275 22.8593ZM27.8047 23.4921C27.8047 23.6187 27.7906 23.6328 27.6641 23.6328C27.5656 23.6328 27.5188 23.6093 27.5094 23.5484C27.4813 23.3937 27.5375 23.3187 27.6735 23.3374C27.786 23.3515 27.8047 23.3749 27.8047 23.4921Z" fill="#008080"/>
<path d="M36.4906 22.8077C35.9468 22.9811 35.6656 23.5718 35.9047 24.0546C36.1343 24.5233 36.7203 24.7015 37.1656 24.439C37.7515 24.0968 37.7468 23.2061 37.1562 22.9061C36.9406 22.7936 36.664 22.7561 36.4906 22.8077ZM36.8515 23.3749C37.1047 23.4686 37.1 23.8624 36.8468 23.9796C36.6968 24.0452 36.5047 23.9655 36.425 23.8015C36.3547 23.6608 36.4203 23.4499 36.5609 23.3843C36.6922 23.3186 36.7062 23.3186 36.8515 23.3749Z" fill="#008080"/>
<path d="M25.1094 25.0579C24.411 25.2501 24.3406 25.2782 24.1766 25.4563C24.0313 25.611 23.9844 26.0141 24.0922 26.2157C24.3172 26.6516 24.5891 26.6938 25.55 26.4454C25.925 26.3469 26.2953 26.2298 26.375 26.1829C26.8156 25.911 26.811 25.2407 26.3656 24.9688C26.1453 24.8329 25.8453 24.8563 25.1094 25.0579ZM26.1313 25.5641C26.15 25.7001 26.0891 25.7282 25.3672 25.911C24.7344 26.0704 24.5938 26.0704 24.5938 25.911C24.5938 25.7844 24.6266 25.7704 25.2735 25.5969C25.925 25.4188 26.1078 25.4094 26.1313 25.5641Z" fill="#008080"/>
<path d="M33.4578 25.325C32.764 25.4 32.6094 25.4563 32.4312 25.7235C32.3375 25.8547 32.3234 25.9297 32.3375 26.1547C32.3562 26.3891 32.3797 26.45 32.525 26.5907C32.7594 26.825 32.9047 26.8438 33.8047 26.75C34.6344 26.6657 34.7187 26.6328 34.925 26.3563C35.0609 26.1782 35.0609 25.775 34.925 25.5969C34.6672 25.25 34.475 25.2125 33.4578 25.325ZM34.4562 25.9157C34.5547 26.075 34.4047 26.1266 33.7015 26.1969C33.0125 26.2625 32.8906 26.2485 32.8906 26.0938C32.8906 25.9625 32.9375 25.9485 33.5375 25.8828C34.2219 25.8078 34.3906 25.8125 34.4562 25.9157Z" fill="#008080"/>
<path d="M28.6015 25.7843C28.5265 25.8171 28.414 25.8968 28.3625 25.9577C28.1422 26.2015 27.5047 27.1718 27.4625 27.3265C27.35 27.7343 27.6359 28.1749 28.039 28.2077C28.4844 28.2405 28.5875 28.1609 29.1547 27.3265C29.6328 26.6234 29.6844 26.464 29.5203 26.1312C29.3515 25.7796 28.9484 25.6296 28.6015 25.7843ZM29.014 26.3843C29.0562 26.4452 28.9906 26.5671 28.6859 27.0124C28.2594 27.6359 28.1609 27.7296 28.0484 27.6171C28.0015 27.5749 27.9875 27.5093 28.0015 27.4624C28.0344 27.378 28.6344 26.5015 28.7562 26.3609C28.8406 26.2624 28.9484 26.2718 29.014 26.3843Z" fill="#008080"/>
<path d="M38.0188 26.0469C37.9672 26.0656 37.8594 26.1594 37.775 26.2531C37.6484 26.3984 37.625 26.4594 37.625 26.6703C37.625 27.0078 37.7141 27.1297 38.3609 27.6875C38.9609 28.2078 39.0359 28.25 39.3266 28.25C39.8516 28.25 40.1984 27.6359 39.9266 27.1906C39.8375 27.0453 38.7594 26.0984 38.6188 26.0375C38.5063 25.9953 38.1359 26 38.0188 26.0469ZM38.9375 27.0125C39.3359 27.3594 39.4531 27.4906 39.4438 27.5656C39.4109 27.7859 39.2375 27.7109 38.7031 27.2422C38.2344 26.8297 38.1266 26.6844 38.2203 26.5953C38.3047 26.5062 38.4594 26.6 38.9375 27.0125Z" fill="#008080"/>
<path d="M36.6969 28.3952C36.2094 28.639 36.0828 29.2811 36.4344 29.703C36.7578 30.0827 37.2781 30.1155 37.6578 29.7827C38.075 29.4171 38.0469 28.7983 37.5969 28.4561C37.3625 28.278 36.9781 28.2499 36.6969 28.3952ZM37.3063 28.939C37.3906 29.014 37.4188 29.2155 37.3531 29.3093C37.3109 29.3702 37.1375 29.4686 37.0625 29.4686C36.9734 29.4686 36.7813 29.2436 36.7813 29.1405C36.7813 28.9108 37.1234 28.7749 37.3063 28.939Z" fill="#008080"/>
<path d="M22.4375 28.7329C21.9922 29.0282 21.9734 29.6891 22.3953 29.9891C22.5969 30.1345 22.9766 30.1626 23.2063 30.0548C23.7313 29.8063 23.7359 28.9485 23.2156 28.7001C22.9813 28.5876 22.625 28.6016 22.4375 28.7329ZM23.0234 29.3751C23.0234 29.5251 23.0094 29.5391 22.8734 29.5532C22.6906 29.572 22.5922 29.436 22.6719 29.2766C22.7141 29.2063 22.7609 29.1876 22.8734 29.197C23.0094 29.211 23.0234 29.2251 23.0234 29.3751Z" fill="#008080"/>
<path d="M24.0641 37.1937C23.9328 37.339 23.9703 37.4937 24.2094 37.789C24.4437 38.0843 24.5937 38.1547 24.7391 38.0375C24.8844 37.925 24.8844 37.7937 24.7344 37.5687C24.4344 37.114 24.2328 37.0062 24.0641 37.1937Z" fill="#008080"/>
<path d="M25.3906 38.5485C25.2875 38.586 25.2031 38.7079 25.2031 38.8204C25.2031 38.9235 25.5219 39.2516 25.9766 39.6173C27.0734 40.4985 28.6578 41.2344 30.05 41.5157C30.6547 41.6376 30.8047 41.6376 30.8937 41.5063C31.0812 41.2391 30.9359 41.1173 30.2609 40.9813C28.6766 40.6579 27.2375 39.9688 26.1172 38.9938C25.7656 38.6891 25.5312 38.511 25.4844 38.5204C25.4703 38.5204 25.4281 38.5344 25.3906 38.5485Z" fill="#008080"/>
<path d="M33.4531 41.0281C33.2609 41.0656 32.8203 41.1125 32.4734 41.1313C31.8031 41.1734 31.7188 41.2063 31.7188 41.4453C31.7188 41.6422 31.8547 41.7031 32.3094 41.7031C32.75 41.7031 33.5937 41.6047 33.9219 41.5156C34.2031 41.4406 34.2687 41.1781 34.0484 41.0234C33.9359 40.9438 33.9266 40.9438 33.4531 41.0281Z" fill="#008080"/>
</svg>
