<svg width="63" height="63" viewBox="0 0 63 63" fill="none" xmlns="http://www.w3.org/2000/svg">
<circle cx="31.5" cy="31.5" r="31" stroke="#008080" stroke-opacity="0.5"/>
<path d="M32.75 23V25.25H29H25.25V26.75C25.25 27.8 25.4 28.25 25.775 28.25C26.15 28.25 26.4125 28.8125 26.525 29.825C26.7875 31.5875 27.875 42.3875 27.875 42.9125C27.875 43.1 29.75 43.25 32 43.25C34.2875 43.25 36.125 43.1 36.125 42.9125C36.125 42.3875 37.2125 31.5875 37.475 29.825C37.5875 28.8125 37.85 28.25 38.225 28.25C38.6 28.25 38.75 27.8 38.75 26.75V25.25H36.875H35V23V20.75H33.875H32.75V23ZM34.25 23.375C34.25 24.3875 34.1 25.25 33.875 25.25C33.6875 25.25 33.5 24.3875 33.5 23.375C33.5 22.325 33.6875 21.5 33.875 21.5C34.1 21.5 34.25 22.325 34.25 23.375ZM38 26.75C38 27.4625 37.7375 27.5 32 27.5C26.2625 27.5 26 27.4625 26 26.75C26 26.0375 26.2625 26 32 26C37.7375 26 38 26.0375 38 26.75ZM36.875 28.8125C36.875 29.225 36.425 29.375 35.0375 29.375C34.025 29.375 32.6 29.6375 31.8875 29.9375C29.3375 30.9875 27.125 30.5375 27.125 28.925C27.125 28.325 27.5375 28.25 32 28.25C36.0875 28.25 36.875 28.325 36.875 28.8125ZM36.5 31.0625C36.5 32.0375 35.9 38.0375 35.525 40.8875L35.3375 42.5H32H28.6625L28.475 40.8875C28.175 38.7125 27.5 32.15 27.5 31.55C27.5 31.175 27.9125 31.1 28.925 31.175C29.7125 31.25 30.9125 31.0625 31.625 30.7625C32.3375 30.425 33.725 30.1625 34.7375 30.1625C36.3875 30.125 36.5 30.2 36.5 31.0625Z" fill="#008080"/>
<path d="M35 31.25C35 31.4375 35.1875 31.625 35.375 31.625C35.6 31.625 35.75 31.4375 35.75 31.25C35.75 31.025 35.6 30.875 35.375 30.875C35.1875 30.875 35 31.025 35 31.25Z" fill="#008080"/>
<path d="M28.775 32.9C28.6625 33.2 28.625 33.8375 28.7 34.325C28.775 35.0375 29.0375 35.1875 30.125 35.1875C31.3625 35.1875 31.4375 35.1125 31.4375 33.875C31.4375 32.675 31.325 32.5625 30.2 32.45C29.4125 32.375 28.925 32.525 28.775 32.9ZM30.875 33.875C30.875 34.3625 30.6125 34.625 30.125 34.625C29.6375 34.625 29.375 34.3625 29.375 33.875C29.375 33.3875 29.6375 33.125 30.125 33.125C30.6125 33.125 30.875 33.3875 30.875 33.875Z" fill="#008080"/>
<path d="M33.875 32.75C33.875 32.9375 34.0625 33.125 34.25 33.125C34.475 33.125 34.625 32.9375 34.625 32.75C34.625 32.525 34.475 32.375 34.25 32.375C34.0625 32.375 33.875 32.525 33.875 32.75Z" fill="#008080"/>
<path d="M35 33.875C35 34.0625 35.1875 34.25 35.375 34.25C35.6 34.25 35.75 34.0625 35.75 33.875C35.75 33.65 35.6 33.5 35.375 33.5C35.1875 33.5 35 33.65 35 33.875Z" fill="#008080"/>
<path d="M32.15 35.9C32.0375 36.2 32 36.8375 32.075 37.325C32.15 38.0375 32.4125 38.1875 33.5 38.1875C34.7375 38.1875 34.8125 38.1125 34.8125 36.875C34.8125 35.675 34.7 35.5625 33.575 35.45C32.7875 35.375 32.3 35.525 32.15 35.9ZM34.25 36.875C34.25 37.3625 33.9875 37.625 33.5 37.625C33.0125 37.625 32.75 37.3625 32.75 36.875C32.75 36.3875 33.0125 36.125 33.5 36.125C33.9875 36.125 34.25 36.3875 34.25 36.875Z" fill="#008080"/>
<path d="M30.5 36.875C30.5 37.0625 30.6875 37.25 30.875 37.25C31.1 37.25 31.25 37.0625 31.25 36.875C31.25 36.65 31.1 36.5 30.875 36.5C30.6875 36.5 30.5 36.65 30.5 36.875Z" fill="#008080"/>
<path d="M29 37.625C29 37.8125 29.1875 38 29.375 38C29.6 38 29.75 37.8125 29.75 37.625C29.75 37.4 29.6 37.25 29.375 37.25C29.1875 37.25 29 37.4 29 37.625Z" fill="#008080"/>
<path d="M29.525 39.275C29.4125 39.575 29.375 40.2125 29.45 40.7C29.525 41.4125 29.7875 41.5625 30.875 41.5625C32.1125 41.5625 32.1875 41.4875 32.1875 40.25C32.1875 39.05 32.075 38.9375 30.95 38.825C30.1625 38.75 29.675 38.9 29.525 39.275ZM31.625 40.25C31.625 40.7375 31.3625 41 30.875 41C30.3875 41 30.125 40.7375 30.125 40.25C30.125 39.7625 30.3875 39.5 30.875 39.5C31.3625 39.5 31.625 39.7625 31.625 40.25Z" fill="#008080"/>
</svg>
