<svg width="295" height="44" viewBox="0 0 295 44" fill="none" xmlns="http://www.w3.org/2000/svg">
<path d="M0.596 44V0.289997H33.022V10.458H13.368V16.72H31.534V26.888H13.368V33.832H33.022V44H0.596ZM37.6967 44V34.204L58.5287 7.544V11.14H37.6967V0.289997H71.2387V10.086L50.4067 36.746V33.15H72.2307V44H37.6967ZM77.43 44V0.289997H98.944C104.111 0.289997 108.099 1.53 110.91 4.01C113.721 6.49 115.126 9.92066 115.126 14.302C115.126 17.1953 114.485 19.696 113.204 21.804C111.964 23.8707 110.125 25.4827 107.686 26.64C105.247 27.756 102.292 28.314 98.82 28.314L99.254 26.516H102.912C104.731 26.516 106.363 27.0533 107.81 28.128C109.257 29.1613 110.455 30.5253 111.406 32.22L118.164 44H103.47L95.968 30.236C95.6373 29.616 95.1 29.182 94.356 28.934C93.612 28.6447 92.8473 28.5 92.062 28.5H90.822V44H77.43ZM90.822 19.138H96.526C98.4273 19.138 99.874 18.7867 100.866 18.084C101.858 17.34 102.354 16.224 102.354 14.736C102.354 13.2893 101.858 12.2147 100.866 11.512C99.874 10.8093 98.4273 10.458 96.526 10.458H90.822V19.138ZM131.988 44V22.982L134.592 30.174L114.628 0.289997H130.004L140.11 16.534H137.568L147.736 0.289997H162.678L142.714 30.174L145.38 22.982V44H131.988ZM166.737 44V0.289997H185.275C190.565 0.289997 195.009 1.17866 198.605 2.956C202.242 4.73333 204.991 7.25467 206.851 10.52C208.711 13.744 209.641 17.6087 209.641 22.114C209.641 26.578 208.711 30.4427 206.851 33.708C204.991 36.9733 202.242 39.5153 198.605 41.334C195.009 43.1113 190.565 44 185.275 44H166.737ZM180.129 33.212H184.469C188.519 33.212 191.516 32.3027 193.459 30.484C195.401 28.6653 196.373 25.8753 196.373 22.114C196.373 18.3113 195.401 15.5213 193.459 13.744C191.516 11.9667 188.519 11.078 184.469 11.078H180.129V33.212ZM215.78 44V0.289997H248.206V10.458H228.552V16.72H246.718V26.888H228.552V33.832H248.206V44H215.78ZM253.5 44V0.289997H275.014C280.181 0.289997 284.17 1.53 286.98 4.01C289.791 6.49 291.196 9.92066 291.196 14.302C291.196 17.1953 290.556 19.696 289.274 21.804C288.034 23.8707 286.195 25.4827 283.756 26.64C281.318 27.756 278.362 28.314 274.89 28.314L275.324 26.516H278.982C280.801 26.516 282.434 27.0533 283.88 28.128C285.327 29.1613 286.526 30.5253 287.476 32.22L294.234 44H279.54L272.038 30.236C271.708 29.616 271.17 29.182 270.426 28.934C269.682 28.6447 268.918 28.5 268.132 28.5H266.892V44H253.5ZM266.892 19.138H272.596C274.498 19.138 275.944 18.7867 276.936 18.084C277.928 17.34 278.424 16.224 278.424 14.736C278.424 13.2893 277.928 12.2147 276.936 11.512C275.944 10.8093 274.498 10.458 272.596 10.458H266.892V19.138Z" fill="white"/>
</svg>
