<svg width="26" height="32" viewBox="0 0 26 32" fill="none" xmlns="http://www.w3.org/2000/svg">
<path d="M4.05001 0.181252L3.84376 0.362502V1.9875C3.84376 3.525 3.85001 3.61875 3.96876 3.75C4.03751 3.825 4.15626 3.9125 4.23751 3.94375C4.35001 3.9875 4.37501 4.03125 4.34376 4.14375C4.26876 4.39375 3.50626 5.68125 2.24376 7.70625C0.35001 10.7313 0.46876 10.2563 0.46876 14.7188V18.1563L0.90001 19.7188L1.32501 21.2813L1.28751 21.95C1.22501 23.1438 1.06251 24.0563 0.65001 25.5313C0.48751 26.1125 0.47501 26.2375 0.47501 27.3125C0.47501 28.3125 0.49376 28.5375 0.61251 28.9688C0.96876 30.2625 1.80626 31.4 2.73126 31.85C3.03751 32 3.08751 32.0063 4.07501 31.9875L5.10626 31.9688L5.58751 31.6688C6.05626 31.3813 6.07501 31.375 6.58126 31.375C7.07501 31.375 7.10626 31.3875 7.55626 31.6563C7.81251 31.8125 8.11251 31.95 8.21876 31.975C8.32501 31.9938 8.81876 32 9.31876 31.9875C10.325 31.9688 10.4313 31.9375 10.9813 31.4875C11.6813 30.9125 12.2938 29.9313 12.5313 29.0125C12.8125 27.9 12.7688 26.4688 12.4063 25.1875C12.1 24.1188 11.9313 23.075 11.8938 22.0313L11.8625 21.1563L12.2125 19.8625C12.775 17.7813 12.75 18.0188 12.75 14.9688C12.75 10.575 12.775 10.6875 11.025 7.875C9.31876 5.14375 8.81251 4.275 8.81251 4.0875C8.81251 4.04375 8.87501 3.975 8.95626 3.93125C9.30626 3.75 9.31251 3.725 9.31251 1.9875V0.381251L9.16251 0.206252L9.01251 0.031251L6.63126 0.0125017L4.25626 -0.00624943L4.05001 0.181252ZM8.06251 2V2.75H6.56251H5.06251V2V1.25H6.56251H8.06251V2ZM7.55626 4.2625C7.66251 4.7 8.23126 5.75 9.28126 7.4375C9.82501 8.3125 10.325 9.125 10.3938 9.23125L10.5125 9.4375H6.59376C3.28126 9.4375 2.68126 9.425 2.70626 9.35C2.72501 9.30625 3.03126 8.80625 3.38126 8.24375C4.98751 5.675 5.51251 4.725 5.59376 4.25L5.63751 4H6.56251H7.49376L7.55626 4.2625ZM11.35 11.1063C11.4375 11.4688 11.4625 11.9438 11.4813 14.3563L11.5125 17.1875H6.60001H1.68751V16.5625V15.9375H3.12501C4.65626 15.9375 4.85001 15.9063 5.00001 15.6313C5.08126 15.475 5.08126 15.15 5.00001 14.9938C4.85001 14.7188 4.65626 14.6875 3.12501 14.6875H1.68751V14V13.3125H4.11251C6.79376 13.3125 6.73751 13.3188 6.87501 12.9125C6.93126 12.7438 6.92501 12.65 6.85001 12.4688C6.68126 12.075 6.61251 12.0625 3.99376 12.0625H1.66876L1.71251 11.6875C1.73751 11.4813 1.80001 11.175 1.85001 11L1.94376 10.6875H6.59376H11.2375L11.35 11.1063ZM11.25 18.5375C11.25 18.6 11.1063 19.1813 10.9313 19.8375L10.6063 21.0313L10.6438 22.0313C10.6813 23.1 10.8313 24.1438 11.1 25.125C11.4313 26.325 11.4438 26.4 11.45 27.2813C11.4563 28.7125 11.1813 29.4938 10.4 30.2938L9.95626 30.75H9.21876H8.48126L7.97501 30.45L7.46876 30.1563H6.58751H5.71251L5.20001 30.4563L4.68751 30.75H3.98126H3.26876L2.98751 30.5313C2.41251 30.1 1.93751 29.25 1.77501 28.3688C1.63751 27.6688 1.68751 26.4688 1.86876 25.8125C2.32501 24.2063 2.51251 23.0563 2.52501 21.7813C2.53126 20.9063 2.53126 20.9063 2.20626 19.7125C2.02501 19.0563 1.87501 18.5 1.87501 18.4813C1.87501 18.4563 3.98751 18.4375 6.56251 18.4375C10.875 18.4375 11.25 18.4438 11.25 18.5375Z" fill="#008080"/>
<path d="M8.95625 12.1063C8.7375 12.15 8.5 12.475 8.5 12.7313C8.5 13.1875 9.06875 13.475 9.46875 13.2125C9.85 12.9625 9.775 12.3313 9.35 12.1563C9.225 12.1063 9.11875 12.0688 9.1125 12.0688C9.1 12.075 9.03125 12.0938 8.95625 12.1063Z" fill="#008080"/>
<path d="M21.3437 12.7437C21.1625 12.8188 19.4187 14.8938 19.3312 15.1375C19.2875 15.25 19.2562 15.6625 19.2562 16.0438L19.25 16.75H17.0187C14.625 16.75 14.5937 16.7563 14.3562 17.075L14.2312 17.2438L14.8687 24.3875C15.2875 29.0625 15.5375 31.5813 15.5937 31.6875C15.6375 31.775 15.75 31.8813 15.8437 31.925C16.075 32.0313 23.7375 32.0313 23.9687 31.925C24.0625 31.8813 24.175 31.775 24.2187 31.6875C24.275 31.5813 24.5187 29.0813 24.9375 24.3813L25.5812 17.2375L25.4562 17.075C25.2187 16.7563 25.1875 16.75 22.8 16.75H20.5625V16.125V15.5L21.35 14.575C21.7812 14.0688 22.1625 13.5875 22.1937 13.5063C22.3812 13.0312 21.8375 12.5438 21.3437 12.7437ZM19.25 19.5938V21.1875H17.5437H15.8375L15.7312 19.9188C15.6687 19.225 15.6 18.5063 15.5812 18.325L15.5437 18H17.4H19.25V19.5938ZM24.2312 18.325C24.2125 18.5063 24.1437 19.225 24.0812 19.9188L23.975 21.1875H22.2687H20.5625V19.5938V18H22.4125H24.2687L24.2312 18.325ZM23.8437 22.6688C23.8125 22.8875 23.125 30.5688 23.125 30.6938C23.125 30.725 21.725 30.75 19.9062 30.75C18.0875 30.75 16.6875 30.725 16.6875 30.6938C16.6875 30.5688 16 22.8875 15.9687 22.6688L15.9375 22.4375H19.9062H23.875L23.8437 22.6688Z" fill="#008080"/>
</svg>
