<svg width="63" height="63" viewBox="0 0 63 63" fill="none" xmlns="http://www.w3.org/2000/svg">
<circle cx="31.5" cy="31.5" r="31" stroke="#008080" stroke-opacity="0.5"/>
<path d="M28.5875 20.0938C28.0016 20.1641 27.8328 20.2016 27.6641 20.3047C27.4109 20.45 27.2234 20.7453 27.1859 21.0687C27.1625 21.2844 27.1484 21.3078 27.0172 21.3312C26.9422 21.3453 26.7453 21.3594 26.5813 21.3594C26.0516 21.3594 25.8172 21.4344 25.5734 21.6875C25.3391 21.9219 25.2125 22.2781 25.2688 22.5078C25.2969 22.6203 25.2922 22.625 25.0719 22.625C24.725 22.625 23.4688 22.8125 23.3281 22.8828C23.0422 23.0281 22.8125 23.4172 22.8125 23.75C22.8125 23.8156 22.9906 24.7391 23.2109 25.7984C23.4313 26.8578 23.6094 27.7578 23.6094 27.8C23.6094 27.8422 23.5719 27.875 23.5156 27.875C23.225 27.875 22.8828 28.2078 22.8313 28.5406C22.7984 28.7281 25.3203 43.4 25.4141 43.5734C25.4984 43.7375 25.6203 43.8406 25.8266 43.9297C25.9766 43.9906 26.7078 44 32.0234 44C37.3578 44 38.0703 43.9906 38.225 43.9297C38.4359 43.8406 38.5859 43.7047 38.6516 43.5406C38.7453 43.3109 41.2438 28.7047 41.2156 28.5406C41.1641 28.2078 40.8219 27.875 40.5312 27.875C40.475 27.875 40.4375 27.8422 40.4375 27.7906C40.4375 27.7484 40.6156 26.8484 40.8359 25.7937C41.0563 24.7391 41.2344 23.8203 41.2344 23.7547C41.2344 23.4172 41.0047 23.0328 40.7188 22.8828C40.5781 22.8125 39.3219 22.625 38.9703 22.625C38.7641 22.625 38.7453 22.6156 38.7734 22.5312C38.7922 22.4797 38.7781 22.3203 38.75 22.175C38.7031 21.9641 38.6516 21.8703 38.4781 21.6875C38.2297 21.4344 37.9953 21.3594 37.4656 21.3594C37.3016 21.3594 37.1047 21.3453 37.0297 21.3312C36.8984 21.3078 36.8844 21.2844 36.8609 21.0687C36.8234 20.75 36.6359 20.45 36.3828 20.3047C36.2094 20.2016 36.0547 20.1687 35.3281 20.0844C34.8641 20.0328 34.4094 20.0047 34.325 20.0187C34.2406 20.0328 34.0766 20.1078 33.9594 20.1828C33.6453 20.3844 33.5188 20.675 33.4531 21.3594C33.425 21.6547 33.3922 21.9781 33.3781 22.0766L33.35 22.2594L33.2234 22.1422C32.9469 21.8844 32.8766 21.8703 31.8219 21.8891C31.2875 21.8937 30.8094 21.9172 30.7531 21.9406C30.6594 21.9734 30.6547 21.9547 30.5984 21.3969C30.5281 20.6656 30.4016 20.3797 30.0641 20.1687C29.7734 19.9906 29.5344 19.9766 28.5875 20.0938ZM29.7594 20.8484C29.8344 20.9516 29.8766 21.2516 30.0313 22.8641C30.1297 23.9047 30.2188 24.9125 30.2328 25.0953L30.2609 25.4375H30.1344C29.9375 25.4422 29.6469 25.5922 29.4828 25.7797C29.225 26.075 29.2063 26.2203 29.3188 27.3594C29.3703 27.9125 29.4078 28.3719 29.4031 28.3766C29.3984 28.3859 29.3 28.175 29.1922 27.9078L28.9953 27.4297L28.8078 24.7812C28.6297 22.2125 28.6203 22.1234 28.5031 21.8844C28.3859 21.6406 28.0813 21.3594 27.9359 21.3594C27.8422 21.3594 27.8609 21.1062 27.9641 20.9797C28.0391 20.8812 28.1281 20.8625 28.7 20.7922C29.5391 20.6891 29.6469 20.6937 29.7594 20.8484ZM35.3 20.7875C35.9188 20.8625 36.0078 20.8859 36.0828 20.9797C36.1859 21.1062 36.2047 21.3594 36.1109 21.3594C35.9609 21.3594 35.6469 21.6547 35.5391 21.8891C35.4359 22.1094 35.4172 22.2781 35.3328 23.5156C35.2766 24.275 35.225 25.025 35.2109 25.1844L35.1828 25.4656H34.8688C34.3953 25.4609 34.0344 25.7094 33.9219 26.1125C33.8938 26.2203 33.7672 27.0078 33.6406 27.8562C33.5188 28.7047 33.4156 29.3422 33.4109 29.2719C33.4062 29.2062 33.5844 27.2984 33.8047 25.0344C34.1797 21.1484 34.2078 20.9187 34.3063 20.8109C34.4234 20.6844 34.4047 20.6844 35.3 20.7875ZM27.8188 22.1234C27.9172 22.2266 27.9266 22.3297 28.0156 23.5906C28.0672 24.3359 28.1141 25.0391 28.1281 25.1562L28.1422 25.3672L28.0156 25.0859C27.8188 24.6453 27.5234 24.3969 27.1391 24.3312C27.0031 24.3125 26.8625 24.3359 26.6094 24.425C26.4172 24.4906 26.2531 24.5328 26.2391 24.5187C26.1828 24.4625 25.9625 22.3719 26 22.2687C26.0609 22.1141 26.1266 22.0859 26.5859 22.0578C27.5516 21.9969 27.7109 22.0062 27.8188 22.1234ZM37.9203 22.1187C38.075 22.1984 38.0844 22.3438 37.9859 23.2016L37.8875 24.0312H37.4656C36.9594 24.0312 36.7297 24.1203 36.5141 24.3828C36.35 24.5797 36.2891 24.7906 36.2422 25.2969L36.2094 25.6531L36.05 25.6344C35.9609 25.625 35.8906 25.5922 35.8906 25.5594C35.8906 25.5312 35.9422 24.7719 36.0078 23.8719C36.1203 22.3203 36.1297 22.2266 36.2281 22.1187L36.3359 22.0062L37.0859 22.0391C37.4984 22.0578 37.8734 22.0953 37.9203 22.1187ZM32.7734 22.6906C32.8391 22.7937 32.8438 23.0422 32.7969 25.2125C32.7688 26.5344 32.7313 27.8187 32.7172 28.0625C32.6891 28.4844 32.6797 28.4422 32.6234 27.3828C32.5906 26.7641 32.5438 26.1781 32.5156 26.0797C32.45 25.8547 32.225 25.6016 31.9813 25.475C31.8266 25.3953 31.7094 25.3766 31.3813 25.3812L30.9734 25.3906L30.95 25.1891C30.9359 25.0812 30.9172 24.5094 30.9031 23.9187C30.8844 23.0375 30.8938 22.8172 30.95 22.7094L31.0203 22.5781H31.8594C32.6984 22.5781 32.7031 22.5781 32.7734 22.6906ZM25.3063 23.4078C25.3531 23.4641 25.4094 23.7078 25.4563 24.0781C25.5594 24.8797 25.5641 24.8328 25.2969 24.9781C24.9734 25.1609 24.8047 25.4562 24.8094 25.8359C24.8141 26.0891 24.8563 26.2109 25.2219 26.975C25.4422 27.4437 25.625 27.8422 25.625 27.8516C25.625 27.8656 25.3391 27.875 24.9922 27.875C24.3781 27.875 24.3594 27.8703 24.3359 27.7672C24.2656 27.4625 23.5156 23.7828 23.5156 23.7312C23.5156 23.5578 23.6422 23.4969 24.2 23.4172C24.9688 23.3094 25.2172 23.3094 25.3063 23.4078ZM39.7063 23.4031C40.3672 23.4875 40.4703 23.5203 40.5078 23.6656C40.5266 23.7453 39.9219 26.8625 39.7109 27.7672C39.6875 27.8609 39.6547 27.875 39.425 27.875H39.1672L39.1953 27.7203C39.275 27.2562 39.5 25.2687 39.5 25.0391C39.5 24.8891 39.4672 24.7016 39.425 24.6125C39.3172 24.3875 39.0641 24.1812 38.8109 24.1203L38.5953 24.0641L38.6281 23.7828C38.6797 23.2953 38.7313 23.2766 39.7063 23.4031ZM38.7078 24.8328C38.8297 24.8984 38.825 25.0484 38.6328 26.5625C38.5438 27.2703 38.4688 27.8562 38.4688 27.8609C38.4688 27.8703 38.0984 27.875 37.6484 27.875C37.1984 27.875 36.8281 27.8609 36.8281 27.8375C36.8281 27.8187 36.8703 27.575 36.9219 27.2937C37.0344 26.6844 37.0391 26.4172 36.95 26.2391C36.8938 26.1359 36.8891 26.0141 36.9266 25.5969C36.95 25.3156 36.9781 25.0344 36.9969 24.9688C37.0531 24.725 37.0719 24.7203 37.8781 24.7531C38.2859 24.7719 38.6609 24.8047 38.7078 24.8328ZM27.1906 25.1187C27.275 25.1937 27.5234 25.7375 27.9969 26.8672C29.1078 29.5344 29.0656 29.4219 28.9297 29.2578C28.8641 29.1781 28.7188 28.9391 28.6156 28.7187C28.2125 27.8984 28.1703 27.875 27.1531 27.875H26.4266L26.2109 27.4156C25.4141 25.7469 25.4141 25.7516 25.6438 25.5969C25.7516 25.5266 26.9797 25.0156 27.0406 25.0156C27.0594 25.0156 27.125 25.0625 27.1906 25.1187ZM31.6766 26.0938C31.7 26.0938 31.7469 26.1453 31.7891 26.2016C31.8453 26.2906 31.8828 26.7594 31.9766 28.5125C32.0422 29.7219 32.0938 30.7391 32.0938 30.7766C32.0938 30.9172 31.1375 30.7719 30.5656 30.5422L30.3313 30.4484L30.125 28.4141C29.9375 26.4922 29.9281 26.3703 30.0031 26.2578C30.0641 26.1641 30.1203 26.1406 30.2797 26.1359C30.3875 26.1312 30.7109 26.1125 30.9922 26.0938C31.2781 26.0797 31.5359 26.0703 31.5688 26.0797C31.6063 26.0891 31.6531 26.0938 31.6766 26.0938ZM35.6188 26.2766C35.9234 26.3234 36.2047 26.3891 36.2422 26.4219C36.3359 26.4969 36.3313 26.6094 36.2094 27.2937L36.1109 27.8703L35.9047 28.0156C35.7406 28.1281 35.6609 28.2359 35.5344 28.5125C35.2531 29.1312 34.8734 29.6234 34.3719 30.0172C34.1938 30.1531 34.0438 30.2609 34.0344 30.2516C34.025 30.2422 34.1422 29.3516 34.2969 28.2687C34.55 26.5156 34.5875 26.2953 34.6766 26.2203C34.7469 26.1641 34.8266 26.1453 34.925 26.1641C35.0047 26.1781 35.3188 26.2297 35.6188 26.2766ZM27.9078 28.8922C28.5594 30.2984 29.8578 31.2641 31.3906 31.4891C31.8922 31.5594 32.6562 31.5172 33.1484 31.3906C33.6266 31.2641 34.3719 30.9031 34.7656 30.6031C35.3469 30.1672 35.825 29.5672 36.1391 28.8922L36.2844 28.5781H38.3797C39.575 28.5781 40.4891 28.5969 40.5031 28.6203C40.5266 28.6531 39.5234 34.6203 39.4297 35.0328L39.4062 35.1406H38.1875C37.0297 35.1406 36.9641 35.1453 36.875 35.2344C36.7719 35.3375 36.7531 35.5156 36.8281 35.6562C36.9125 35.8156 37.1375 35.8438 38.2344 35.8438H39.2938L39.1156 36.8609C39.0172 37.4234 38.9375 37.8969 38.9375 37.9156C38.9375 37.9391 38.5109 37.9531 37.9906 37.9531C37.0859 37.9531 37.0391 37.9578 36.9359 38.0562C36.8047 38.1781 36.7953 38.3703 36.9172 38.5203C37.0063 38.6281 37.025 38.6328 37.9016 38.6469C38.3938 38.6562 38.7969 38.675 38.7969 38.6937C38.7969 38.7406 38.0516 43.0672 38.0234 43.1891L38 43.2969H32.0234C26.3797 43.2969 26.0516 43.2922 26.0281 43.2125C26.0047 43.1328 25.25 38.7547 25.25 38.6937C25.25 38.675 25.6531 38.6562 26.1453 38.6469C27.0219 38.6328 27.0406 38.6281 27.1297 38.5203C27.2469 38.375 27.2422 38.1969 27.1156 38.0609C27.0172 37.9531 26.9984 37.9531 26.0656 37.9531H25.1188L25.0438 37.5172C25.0016 37.2828 24.9172 36.8094 24.8609 36.4672L24.7531 35.8484L25.9109 35.8344C26.9703 35.8203 27.0781 35.8109 27.1672 35.7312C27.2328 35.6703 27.2656 35.5859 27.2656 35.4641C27.2656 35.15 27.2281 35.1406 25.85 35.1406H24.6406L24.6172 35.0328C24.5234 34.6344 23.5203 28.6578 23.5391 28.6203C23.5578 28.5969 24.4344 28.5781 25.6672 28.5781H27.7625L27.9078 28.8922Z" fill="#008080"/>
<path d="M31.4844 32.989C30.4485 33.1249 29.3891 33.7624 28.7844 34.6015C28.5313 34.9577 28.2407 35.5671 28.1282 35.9843C28.011 36.4108 28.011 37.5265 28.1282 37.953C28.3907 38.9187 28.986 39.7483 29.7969 40.2921C30.4907 40.7562 31.175 40.9624 32.0235 40.9624C33.6125 40.9624 34.9813 40.0905 35.6516 38.6515C35.9469 38.0233 36.0032 37.7468 36.0032 36.9687C36.0032 36.1905 35.9469 35.914 35.6516 35.2905C34.9016 33.6827 33.2375 32.764 31.4844 32.989ZM32.75 33.739C33.3266 33.8608 33.9407 34.2077 34.3907 34.6671C34.7563 35.0421 35.0047 35.4546 35.1735 35.9608C35.2813 36.2843 35.3 36.4155 35.3 36.9452C35.3047 37.4562 35.286 37.6108 35.1969 37.9062C34.7516 39.3265 33.4954 40.264 32.0235 40.264C30.5516 40.264 29.2954 39.3265 28.85 37.9062C28.6954 37.3999 28.6954 36.5327 28.85 36.0312C29.061 35.3655 29.4079 34.8405 29.9141 34.4233C30.7016 33.7718 31.7329 33.5233 32.75 33.739Z" fill="#008080"/>
</svg>
