<svg width="32" height="26" viewBox="0 0 32 26" fill="none" xmlns="http://www.w3.org/2000/svg">
<path d="M28.195 0.735344C27.5141 0.837366 27.3071 0.883276 26.94 0.995501C26.3258 1.18424 25.6916 1.52601 25.1776 1.94941C24.6035 2.41871 24.3365 2.79619 23.9226 3.70418C23.9026 3.75009 23.7958 3.68378 23.6289 3.52564C22.9146 2.8319 21.7664 2.27588 20.5181 2.01572C19.7972 1.86779 18.1483 1.85248 17.8613 1.99532C17.5275 2.16365 17.5408 2.54113 17.8947 2.68396C19.3165 3.27569 20.438 4.10207 21.1256 5.06108C21.3325 5.35184 21.3526 5.40795 21.2458 5.37224C20.7451 5.20391 19.697 4.97946 18.936 4.88254C18.0749 4.77031 18.0282 4.77031 17.8613 4.85193C17.6677 4.94885 17.5809 5.12739 17.641 5.31103C17.661 5.37224 18.0348 5.663 18.4754 5.94867C19.7104 6.75974 20.5849 7.56061 21.3259 8.56043C21.6596 9.01953 22.2871 10.0908 22.2871 10.2183C22.2871 10.2489 22.187 10.3152 22.0735 10.3662C21.2391 10.7335 20.3779 11.4578 19.8773 12.2026C19.6637 12.524 19.5569 12.6362 19.4834 12.6107C19.43 12.5954 19.1763 12.5699 18.916 12.5546L18.4487 12.524L18.2485 12.1924C17.9614 11.7027 17.2338 10.8916 16.673 10.4274C13.3353 7.67284 7.82798 7.26985 3.89611 9.48883C3.29531 9.8306 2.32069 10.5754 1.87343 11.0345C-0.262731 13.2432 -0.603182 16.2172 1.01229 18.6657L1.35942 19.2064L1.08572 19.3901C0.364767 19.8696 0.338065 20.6143 1.01897 21.1346C1.43952 21.4509 1.69987 21.5172 2.55433 21.5172H3.19518V21.9253C3.19518 22.4354 3.28864 22.7823 3.54231 23.1955C3.79598 23.5985 4.43015 24.1035 4.93749 24.2871C5.37807 24.4503 8.86936 25.19 9.20314 25.19C10.1177 25.19 10.892 24.6595 11.0456 23.93C11.079 23.7515 10.9788 23.3179 10.7652 22.7823C10.7385 22.716 10.8186 22.6905 11.2191 22.6395C11.7665 22.568 12.9347 22.313 13.2084 22.2059L13.3887 22.1344L13.5022 22.4507C13.7892 23.2669 14.617 24.0321 15.6183 24.4146C16.4928 24.7513 16.88 24.7921 18.916 24.7717C20.4714 24.7513 20.6984 24.736 21.0855 24.6391C22.167 24.3636 23.0882 23.7566 23.5688 23.0067L23.8559 22.5629L24.223 22.6344C24.45 22.6752 24.9707 22.7058 25.5915 22.7058C26.4393 22.7109 26.6796 22.6956 27.1603 22.5986C28.3886 22.3436 29.2297 21.9712 30.1309 21.2877C31.0254 20.6041 31.506 19.9614 31.8465 19.0177C32 18.5892 32 18.5433 32 16.059C32 13.6054 31.9933 13.5238 31.8465 13.1259C31.2924 11.6007 29.7704 10.3713 27.8745 9.91222C27.6142 9.8459 27.3872 9.76939 27.3739 9.73878C27.3338 9.64696 27.6142 8.98892 27.8946 8.52982C28.4687 7.57591 29.2363 6.86176 30.6783 5.92316C31.0988 5.6477 31.4526 5.37734 31.4726 5.31103C31.5327 5.12739 31.4459 4.94885 31.2523 4.85193C31.0855 4.76521 31.0254 4.77031 29.7971 4.92845C28.6088 5.08148 27.434 5.31103 27.0134 5.47936C26.7864 5.57118 26.7864 5.56608 26.96 4.98966C27.3472 3.75009 28.0815 2.54623 29.0361 1.58213C29.4099 1.19954 29.45 1.02101 29.1963 0.832266C29.0628 0.725142 28.976 0.704739 28.6823 0.709839C28.4887 0.714939 28.2684 0.725142 28.195 0.735344ZM27.4273 1.9392C26.5995 3.00533 25.9787 4.30101 25.7584 5.42325C25.6382 6.03028 25.6382 6.03538 25.3045 6.21902C25.1309 6.31594 24.8172 6.50979 24.6102 6.65772C24.3966 6.80565 24.203 6.92808 24.1696 6.92808C24.1429 6.92808 24.0094 6.84646 23.8826 6.74444C23.7624 6.64241 23.4687 6.44857 23.2484 6.31084C22.8746 6.0864 22.8212 6.03028 22.6543 5.6681C22.2404 4.77031 21.5328 3.91333 20.6383 3.22978C20.3179 2.98493 20.1243 2.79619 20.1844 2.79619C20.2444 2.79619 20.5248 2.8676 20.8118 2.94922C21.8532 3.25529 22.8412 3.93373 23.3552 4.68359C23.6356 5.10188 23.7624 5.1937 24.0361 5.1937C24.3632 5.1937 24.4634 5.07128 24.8238 4.2398C25.0174 3.796 25.2844 3.27059 25.4179 3.07675C25.7451 2.59214 26.3859 2.11264 27.0334 1.86269C27.3071 1.76066 27.5541 1.67395 27.5808 1.67395C27.6142 1.67395 27.5474 1.79637 27.4273 1.9392ZM28.6489 6.23433C27.6743 7.0301 26.9533 7.9636 26.5261 8.97872C26.3993 9.27968 26.2924 9.56024 26.2924 9.60615C26.2924 9.64696 26.239 9.68267 26.1723 9.68267C26.0855 9.68267 26.0187 9.58575 25.8986 9.29498C25.7384 8.9073 25.3111 8.20845 24.9974 7.81057L24.8238 7.60142L25.2377 7.31066C26.1256 6.70363 27.1803 6.25473 28.3618 5.97927C29.1496 5.79563 29.1629 5.81094 28.6489 6.23433ZM20.5315 6.03538C22.4741 6.5965 24.0294 7.80546 24.7971 9.3562L24.9507 9.67247L24.4166 9.73368C24.1229 9.76429 23.7491 9.8204 23.5822 9.86121C23.3552 9.91222 23.2751 9.91222 23.2551 9.87141C22.661 8.54512 21.6329 7.22904 20.4247 6.25473C20.191 6.06089 20.0175 5.90786 20.0442 5.90786C20.0642 5.90786 20.2845 5.96397 20.5315 6.03538ZM10.8053 8.94301C12.7145 9.16236 14.2632 9.75918 15.6183 10.7998C16.3326 11.3456 16.8266 11.8506 17.2004 12.4169L17.4073 12.728L16.9935 12.9321C16.7665 13.0494 16.5195 13.1871 16.4527 13.2483C16.3259 13.3555 16.3259 13.3504 16.1123 12.9525C15.7919 12.3403 15.378 11.8506 14.7905 11.3813C14.1964 10.9069 13.6023 10.5856 12.8613 10.3254C12.2138 10.0959 10.1978 9.66226 9.98417 9.70307C9.79058 9.73878 8.79593 10.5192 8.30862 11.0294C6.96684 12.4016 6.31932 14.0288 6.42613 15.7275C6.49288 16.8344 6.80663 17.7475 7.44748 18.7065C7.64107 18.9973 7.80128 19.2421 7.80128 19.2472C7.80128 19.2472 7.54094 19.2268 7.22051 19.1962L6.64642 19.1452L6.35937 18.7116C6.01225 18.1862 5.65177 17.37 5.48488 16.7477C5.30464 16.0539 5.32467 14.6307 5.51826 13.9319C5.79863 12.9372 6.31264 12.0139 7.04695 11.1722C7.58099 10.5601 9.75053 8.86649 9.99753 8.86649C10.091 8.86649 10.4581 8.9022 10.8053 8.94301ZM7.45416 9.52964C5.24456 11.2997 4.16313 13.4167 4.28329 15.702C4.31667 16.2886 4.4435 17.0129 4.57034 17.3445C4.60371 17.421 4.56366 17.4363 4.32334 17.4363C3.84271 17.4363 3.52228 17.5435 3.1618 17.8189C2.7813 18.1046 2.66114 18.3392 2.66114 18.783C2.66114 18.9412 2.63444 19.0687 2.60106 19.0687C2.46088 19.0687 1.86008 18.2168 1.55968 17.5894C0.791999 15.957 0.945536 14.0339 1.96689 12.4781C2.74792 11.2946 4.20986 10.1673 5.73188 9.58065C6.41945 9.31539 7.6878 8.98382 8.05495 8.97362C8.10836 8.96852 7.83466 9.21847 7.45416 9.52964ZM27.0134 10.5805C28.6289 10.8355 29.9773 11.6976 30.6182 12.8913C30.9453 13.5034 30.972 13.7737 30.9519 16.2427C30.9252 18.6861 30.9319 18.6453 30.5648 19.385C30.3712 19.7828 29.8572 20.3746 29.3966 20.7265C28.709 21.2469 27.9079 21.5937 26.8599 21.8131C26.3592 21.9202 24.8839 21.9202 24.3899 21.8182L24.0561 21.7468L24.0094 21.1448C23.9427 20.3746 23.7424 19.6349 23.4286 18.9922C23.1683 18.4668 23.1483 18.3545 23.3485 18.5331C23.4086 18.5892 23.5622 18.7014 23.6756 18.783L23.8893 18.9361L24.0895 18.7881L24.2965 18.6402L24.9774 19.1605L25.6583 19.6808L25.191 20.0379L24.7237 20.395L25.1109 20.6857L25.4914 20.9816L25.9587 20.6245L26.426 20.2725L26.8932 20.6245L27.3605 20.9816L27.741 20.6857L28.1282 20.395L27.6609 20.0379L27.1936 19.6808L28.008 19.0585L28.8291 18.431L29.1629 18.6861L29.4967 18.9361L29.7036 18.783C30.1175 18.4872 30.231 18.4004 30.231 18.3647C30.231 18.3494 30.0908 18.2219 29.9172 18.0893L29.6035 17.8444L29.9172 17.5996C30.0908 17.4669 30.231 17.3343 30.231 17.3088C30.231 17.2425 29.6168 16.7732 29.5367 16.7732C29.4967 16.7732 29.3231 16.8803 29.1496 17.0129L28.8291 17.2578L28.1416 16.7324L27.4607 16.2121L28.1416 15.6918L28.8291 15.1663L29.1496 15.4112C29.3231 15.5438 29.4833 15.651 29.5034 15.651C29.5568 15.651 30.231 15.1357 30.231 15.0949C30.231 15.0796 30.0908 14.9572 29.9172 14.8246L29.6035 14.5797L29.9172 14.3349C30.0908 14.2022 30.231 14.0696 30.231 14.0441C30.231 13.9778 29.6168 13.5085 29.5367 13.5085C29.4967 13.5085 29.3231 13.6156 29.1496 13.7482L28.8291 13.9931L28.008 13.3657L27.1936 12.7433L27.6476 12.3965C27.8946 12.2077 28.0948 12.0292 28.0948 12.0037C28.0948 11.9374 27.4807 11.4681 27.4006 11.4681C27.3605 11.4681 27.1269 11.6211 26.8799 11.8098L26.426 12.1567L25.438 11.4017C24.8973 10.9885 24.4233 10.6519 24.3899 10.6519C24.3031 10.6519 23.689 11.1212 23.689 11.1875C23.689 11.213 24.1296 11.5752 24.6703 11.9884L25.6583 12.7433L24.9707 13.2636L24.2898 13.7891L23.3018 13.0341C22.7611 12.6209 22.2871 12.2842 22.2538 12.2842C22.167 12.2842 21.5528 12.7535 21.5528 12.8198C21.5528 12.8453 21.9934 13.2075 22.5341 13.6207L23.5221 14.3757L23.0682 14.7226C22.8212 14.9113 22.6209 15.0796 22.6209 15.0949C22.6209 15.1357 23.2951 15.651 23.3485 15.651C23.3686 15.651 23.5889 15.4979 23.8359 15.3092L24.2898 14.9623L25.1109 15.5897L25.9253 16.2121L25.1109 16.8344L24.2965 17.4567L24.1029 17.319C24.0027 17.2425 23.8893 17.1813 23.8559 17.1813C23.7691 17.1813 23.155 17.6506 23.155 17.7118C23.155 17.7373 23.2351 17.824 23.3285 17.9005L23.5088 18.0434L23.3018 18.2219L23.1015 18.3953L22.928 18.0944C22.4874 17.3445 22.3539 16.9313 22.1269 15.5999C22.0335 15.0541 21.9133 14.4879 21.8532 14.3451C21.7197 14.0033 21.2992 13.5238 20.8786 13.233L20.5515 13.0086L20.8653 12.5291C21.5261 11.5242 22.9146 10.7437 24.3966 10.555C24.984 10.4784 26.4593 10.4937 27.0134 10.5805ZM11.2325 10.7539C12.6811 11.0804 13.5222 11.463 14.2431 12.121C14.9107 12.7331 15.398 13.6207 15.4247 14.2788C15.4381 14.5797 15.1243 16.4059 14.9775 16.916C14.8706 17.2578 14.5702 17.875 14.1897 18.5331C13.9895 18.8748 13.8827 18.982 13.5622 19.186C12.9882 19.5431 12.2805 19.8032 11.2392 20.0379L10.3113 20.2419L9.9508 19.9767C9.75721 19.8287 9.40341 19.5176 9.17644 19.2829C7.52091 17.6047 7.0336 15.3653 7.90142 13.3708C8.30862 12.4424 8.90942 11.667 9.77723 10.963C10.0576 10.7335 10.2912 10.5499 10.3046 10.5499C10.3113 10.5499 10.7318 10.6417 11.2325 10.7539ZM19.5769 13.5289C20.0041 13.687 20.5715 14.1359 20.7584 14.4471C20.8386 14.5899 20.952 15.0388 21.0522 15.6407C21.3125 17.166 21.466 17.62 22.0802 18.6504C22.6543 19.6247 22.8679 20.2674 22.9347 21.2111C22.9747 21.8692 22.8879 22.2314 22.5809 22.7007C22.3539 23.0373 21.7464 23.5066 21.2992 23.6801C20.6583 23.93 20.3179 23.9657 18.6824 23.9657C17.0469 23.9657 16.7064 23.93 16.0656 23.6801C15.6183 23.5066 15.0108 23.0373 14.7839 22.7007C14.4768 22.2314 14.39 21.8692 14.4301 21.2111C14.4968 20.2674 14.7104 19.6247 15.2845 18.6504C15.8987 17.62 16.0522 17.166 16.3126 15.6407C16.4127 15.0388 16.5262 14.5899 16.6063 14.4522C16.7531 14.192 17.2605 13.7635 17.5943 13.6054C18.195 13.3197 18.9427 13.2942 19.5769 13.5289ZM27.2604 13.9676L28.0615 14.5797L27.3739 15.1L26.693 15.6254L25.8786 15.0031L25.0575 14.3757L25.725 13.8656C26.0922 13.585 26.4059 13.3555 26.426 13.3555C26.446 13.3555 26.8198 13.6309 27.2604 13.9676ZM27.3939 17.3343L28.0615 17.8444L27.2404 18.4719L26.426 19.0942L25.7451 18.5688L25.0575 18.0485L25.8585 17.4363C26.2991 17.0997 26.6729 16.8242 26.693 16.8242C26.713 16.8242 27.0267 17.0538 27.3939 17.3343ZM4.63042 18.38C4.78395 18.4923 4.7973 18.5382 4.7973 19.0075C4.7973 19.436 4.77728 19.5227 4.67047 19.5992C4.60371 19.6451 4.49691 19.7726 4.43015 19.8849C4.35672 20.0073 4.25659 20.094 4.15646 20.1093C3.95619 20.1501 3.48223 20.4715 3.42882 20.6041C3.38877 20.6908 3.31534 20.701 2.65447 20.701C1.96689 20.701 1.91348 20.6959 1.75995 20.5735C1.53966 20.4103 1.53966 20.1756 1.75995 20.0124C1.91348 19.89 1.96689 19.8849 2.66114 19.8849C3.35539 19.8849 3.4088 19.8798 3.56234 19.7573C3.72255 19.64 3.72922 19.5992 3.72922 19.0687C3.72922 18.5382 3.7359 18.4974 3.89611 18.38C3.99624 18.2984 4.13643 18.2525 4.26326 18.2525C4.3901 18.2525 4.53028 18.2984 4.63042 18.38ZM7.88139 20.1501C8.32197 20.3083 8.78926 20.65 8.95615 20.9357C9.17644 21.3183 10.0109 23.7821 9.97082 23.9147C9.91074 24.0984 9.61035 24.3177 9.37003 24.3534C9.10301 24.3891 5.7519 23.7056 5.35805 23.5321C5.00424 23.374 4.61707 23.0424 4.4435 22.7466C4.32334 22.5527 4.29664 22.3895 4.27661 21.8131L4.24991 21.1091L4.45018 20.9561C4.57701 20.8643 4.72387 20.8031 4.83068 20.8031C4.92414 20.8031 5.07768 20.7469 5.16446 20.6755C5.25791 20.6092 5.33134 20.4919 5.33134 20.4205C5.33134 20.3389 5.41145 20.2215 5.53161 20.1297L5.73855 19.9767L6.61972 19.9971C7.40075 20.0124 7.54761 20.0328 7.88139 20.1501ZM13.3887 20.8031L13.3086 21.2877L12.7612 21.456C12.1137 21.6498 11.3727 21.8029 10.8253 21.8488L10.4314 21.8845L10.3113 21.5223C10.2445 21.3183 10.2045 21.1448 10.2245 21.1295C10.2445 21.1091 10.7585 20.9918 11.3593 20.8541C11.9668 20.7214 12.6811 20.5327 12.9548 20.4358C13.2218 20.3389 13.4488 20.2725 13.4554 20.2878C13.4621 20.3032 13.4354 20.5378 13.3887 20.8031Z" fill="#008080"/>
</svg>
