<svg width="32" height="23" viewBox="0 0 32 23" fill="none" xmlns="http://www.w3.org/2000/svg">
<path d="M24.408 0.637894C24.1084 0.701218 23.6112 0.876577 23.2032 1.05681C22.9036 1.18833 22.6932 1.17859 22.2661 1.0081C20.7235 0.389469 18.9195 0.788898 18.1992 1.8995C17.906 2.35251 17.8104 2.79091 17.906 3.20495C17.9952 3.619 18.3522 4.15969 18.7155 4.44708L19.0151 4.67602L18.9833 5.24107C18.945 5.79637 18.792 6.38577 18.5753 6.7852C18.5179 6.88749 18.4414 7.02875 18.4096 7.09208C18.3713 7.17001 18.3331 7.19437 18.2884 7.16027C18.2502 7.13105 18.2629 7.00927 18.3267 6.79981C18.5434 6.09351 18.3968 5.25568 17.9378 4.55911C17.1028 3.28776 16.0446 2.65452 14.6295 2.58146C13.5458 2.52787 12.5833 2.84937 11.5506 3.60925C10.6454 4.27172 10.0717 5.21671 10.0717 6.04479C10.0717 6.26399 10.0653 6.26887 9.73386 6.39064C8.84143 6.72675 8.21036 7.31128 7.92988 8.05655C7.91713 8.09065 7.75777 8.00297 7.56653 7.86171C6.66135 7.19924 5.24622 6.84852 3.76733 6.91672C2.81753 6.96056 2.16733 7.16514 1.54263 7.60841C0.873307 8.08091 0.554582 8.56802 0.446215 9.27432C0.376096 9.74195 0.446215 10.4239 0.611952 10.911C0.828685 11.5491 1.37052 12.2018 2.01434 12.6013L2.33307 12.801L2.24382 13.1273C1.91873 14.3159 2.72829 15.4362 4.30916 15.9672L4.76175 16.1182L5.01036 16.5127C5.14422 16.7271 5.36733 17.034 5.5012 17.1898C5.62869 17.3457 5.73705 17.487 5.73705 17.5016C5.73705 17.5113 5.63506 17.5893 5.51394 17.6721C5.39283 17.7549 5.19522 17.9254 5.06773 18.0569L4.84462 18.2907L3.64622 17.9254C2.5753 17.5941 2.42231 17.56 2.11633 17.5795C1.52988 17.6185 1.14741 17.9351 1.14741 18.3832C1.14741 18.6609 1.20478 18.7924 1.42151 18.9726L1.549 19.0798H1.19841C0.497211 19.0798 0.0063745 19.4257 0 19.9225C0 20.0492 0.0446215 20.2196 0.0956175 20.2927C0.305976 20.6045 0.873307 20.8237 1.31952 20.7701C1.43426 20.7555 1.52988 20.7603 1.52988 20.7896C1.52988 20.8139 1.50438 20.8334 1.47888 20.8334C1.44701 20.8334 1.35777 20.9211 1.28127 21.0331C1.16016 21.1939 1.14104 21.2864 1.16016 21.5105C1.19203 21.8563 1.36414 22.0512 1.75936 22.1973C2.16096 22.3483 2.36494 22.3191 3.69721 21.905L4.81275 21.5592L4.96574 21.7199C5.34821 22.1096 5.96016 22.4993 6.53386 22.7136C7.47092 23.0595 7.69402 23.0692 9.6255 22.8646C10.5179 22.7672 14.7442 22.3142 19.0215 21.8612C27.5825 20.9454 27.1936 21.0039 27.5633 20.6045C27.6781 20.4778 27.9203 20.3171 28.1434 20.2099C28.9849 19.8251 29.9347 19.1529 30.4319 18.5878C30.6932 18.2907 30.7124 18.1933 30.5339 18.0569C30.3044 17.8815 30.1195 17.9302 29.8199 18.242C29.4375 18.6414 28.7171 19.2016 28.2645 19.45C28.0478 19.5669 27.8566 19.6643 27.8311 19.6643C27.812 19.6643 27.7418 19.5815 27.6717 19.4744C27.5315 19.2698 27.2255 19.0506 26.9705 18.9726C26.8813 18.9434 24.6693 18.6755 22.0622 18.3735C19.4614 18.0715 17.3004 17.8036 17.2749 17.7792C17.0582 17.6136 16.6375 16.1377 16.6375 15.5629C16.6375 15.2755 16.6438 15.2658 17.0072 14.9589C17.8167 14.2721 18.3649 13.3417 18.4861 12.4357C18.5179 12.1775 18.5307 11.9096 18.5116 11.8511C18.4478 11.6612 19.3339 11.1107 20.3219 10.7308L20.7873 10.5505L21.1378 10.7941C21.3291 10.9305 21.6861 11.1107 21.9283 11.1984C22.1705 11.2861 22.3681 11.3689 22.3681 11.3835C22.3681 11.3981 22.1769 11.4858 21.941 11.5881C21.2526 11.8706 21.004 12.0314 20.8191 12.3139C20.5896 12.6695 20.5896 13.0202 20.8191 13.2296C21.0359 13.4294 21.2972 13.4586 21.7689 13.3319C22.0813 13.2491 22.298 13.2296 22.9546 13.2296C23.7705 13.2345 24.2614 13.1663 24.5865 13.0056C24.7586 12.9179 24.7458 12.913 24.8861 13.1273C25.0709 13.4001 25.4406 13.6778 25.9825 13.9457C26.4287 14.1649 27.0916 14.6471 27.0916 14.7543C27.0916 14.8225 27.4677 14.9394 27.6717 14.9394C27.9458 14.9394 28.3155 14.6471 28.4303 14.3354C28.5514 14.0041 28.4749 13.6827 28.1498 13.1614L27.8693 12.7036L28.0669 12.7377C28.1817 12.7571 28.6343 12.7718 29.0805 12.7718L29.8837 12.7669L30.0813 13.0153C30.7888 13.9116 31.1076 15.0125 30.9291 15.9136C30.8717 16.1864 30.8781 16.2448 30.9737 16.352C31.1203 16.5079 31.3626 16.5322 31.5155 16.4105C31.7259 16.2302 31.8024 15.3778 31.6749 14.6666C31.5602 14.0236 31.1267 13.1371 30.7187 12.689C30.6486 12.6208 30.5976 12.5526 30.5976 12.5379C30.5976 12.5233 30.7378 12.4454 30.9036 12.3626C31.3944 12.1239 32 11.6173 32 11.4468C31.9936 11.174 31.6622 11.0133 31.2861 11.0961C31.0056 11.1546 30.3936 11.1546 30.1769 11.0864C30.0749 11.062 29.7944 10.9207 29.5458 10.7746C29.3036 10.6285 28.9402 10.458 28.749 10.3898C28.3347 10.2485 27.6207 10.1414 27.302 10.1803C27.0916 10.2096 27.0853 10.2047 27.1171 10.0781C27.149 9.97089 27.2765 9.08922 27.2829 8.93335C27.2829 8.91386 27.3402 8.89925 27.4104 8.89925C27.8247 8.89925 28.8319 8.41701 29.2016 8.04681C29.8645 7.37947 29.941 6.47832 29.4183 5.68434C29.3291 5.54795 29.055 5.27029 28.8127 5.07058C28.4048 4.73935 28.3665 4.68576 28.3665 4.50066C28.3665 4.38863 28.4239 4.13533 28.494 3.93562C28.647 3.49722 28.6598 2.91269 28.5259 2.47429C28.2454 1.58288 27.2637 0.822996 26.1355 0.623281C25.7466 0.555086 24.7649 0.564829 24.408 0.637894ZM26.3904 1.30523C26.9259 1.50008 27.3084 1.78747 27.5761 2.20151C27.7801 2.51813 27.812 2.62042 27.8375 3.01498C27.8629 3.39493 27.8438 3.54593 27.7036 3.94536C27.4677 4.65166 27.557 4.91957 28.2072 5.43591C28.7809 5.89379 28.9721 6.22015 28.9721 6.75597C28.9721 7.11156 28.9466 7.20898 28.7873 7.45254C28.596 7.75454 28.1625 8.06142 27.6972 8.22217C27.2701 8.37317 27.251 8.36343 27.1681 7.89581C27.0725 7.38921 26.8876 7.0044 26.6773 6.85339C26.4733 6.70726 26.1163 6.70726 25.5681 6.85339C25.1665 6.96056 25.1538 6.96056 25.0709 6.87288C24.9307 6.72188 24.8988 6.55626 24.988 6.39551C25.1028 6.19093 25.09 5.99121 24.9626 5.88405C24.8988 5.83047 24.6566 5.7574 24.3825 5.70869C23.49 5.55769 22.8972 5.21671 22.553 4.66141C22.4446 4.48605 22.3171 4.30582 22.2598 4.25711C22.1131 4.13046 21.8263 4.15482 21.5458 4.3253C21.0996 4.59808 20.5004 4.60783 19.8438 4.34966C19.2446 4.11585 18.8749 3.75539 18.7028 3.25367C18.4669 2.54736 18.945 1.78747 19.812 1.46111C20.1307 1.3442 20.2518 1.32959 20.7809 1.32472C21.361 1.32472 21.4056 1.33446 21.8645 1.50982C22.6486 1.82157 23.0821 1.80695 23.8279 1.46598C24.3825 1.20781 24.6757 1.15423 25.4024 1.16884C25.9315 1.17859 26.0972 1.20294 26.3904 1.30523ZM15.0757 3.22444C15.8343 3.37544 16.357 3.70181 16.9434 4.3935C17.6127 5.17287 17.8167 5.99121 17.5363 6.77059C17.4661 6.97517 17.4024 7.17976 17.4024 7.2236C17.4024 7.26744 17.5363 7.41357 17.702 7.55483C18.1227 7.91529 18.3713 8.33907 18.4096 8.78721C18.4606 9.37174 18.2757 9.81988 17.6574 10.6334L17.5044 10.8331L17.6255 11.213C18.0143 12.4844 17.4853 13.7752 16.1211 14.842L15.7195 15.1586L15.6367 14.5302C15.5347 13.7557 15.3625 13.2296 15.0375 12.7084C14.7124 12.1677 14.3108 11.744 13.7753 11.3835L13.3418 11.0864L13.5331 10.4872L13.7243 9.89295L14.1705 9.75169C14.4191 9.67375 14.8207 9.50813 15.0693 9.38636C16.2932 8.76773 16.9307 7.77403 16.051 7.83735C15.8725 7.85197 15.8151 7.88606 15.6813 8.08578C15.4837 8.38778 14.8653 8.83105 14.3618 9.03564L13.9665 9.19151L14.1323 8.74337C14.2151 8.49495 14.5211 7.7107 14.808 6.99953C15.0884 6.28835 15.3179 5.65511 15.3179 5.59178C15.3052 5.37259 14.91 5.26055 14.6996 5.41643C14.5785 5.50898 13.6542 7.77403 13.3163 8.78721C13.2717 8.92848 13.2143 9.04538 13.1888 9.04538C13.0869 9.04538 12.6725 8.46572 12.545 8.1491C12.4303 7.86171 12.4175 7.73993 12.4494 7.29179C12.4876 6.82904 12.4749 6.76084 12.3729 6.68778C12.2199 6.58549 12.0096 6.59036 11.8629 6.70239C11.5952 6.90698 11.6016 7.91529 11.8821 8.47546C12.0606 8.83593 12.5068 9.3961 12.7745 9.57633C12.9721 9.71759 12.9785 9.77117 12.8127 10.2778C12.6279 10.8379 12.6598 10.799 12.4303 10.7356C12.2709 10.6869 12.1817 10.5895 11.8884 10.1414C11.3466 9.29381 10.6582 8.78721 9.72112 8.53392C9.47251 8.46572 9.15378 8.41214 9.0008 8.41214C8.65657 8.41214 8.61195 8.3342 8.76494 7.9981C8.99442 7.48176 9.5745 7.05798 10.3968 6.80468C10.843 6.67316 10.9004 6.6001 10.8558 6.23964C10.8048 5.84021 10.945 5.32875 11.2382 4.89035C11.4422 4.56886 11.6143 4.40324 12.0797 4.05252C12.3984 3.80897 12.8191 3.54593 13.0104 3.45825C13.6542 3.16599 14.3681 3.08805 15.0757 3.22444ZM22.0558 5.23619C22.0558 5.27029 21.8709 5.47488 21.6414 5.68921L21.2271 6.08376V5.60153V5.11929L21.5331 5.02187L21.8327 4.92445L21.941 5.04622C22.0048 5.11442 22.0558 5.2021 22.0558 5.23619ZM20.2773 5.08519L20.4622 5.10955V5.84995C20.4622 6.65855 20.494 6.74136 20.8382 6.85339C21.1888 6.96056 21.3928 6.86314 22.0175 6.26887C22.3235 5.9766 22.604 5.73305 22.6295 5.73305C22.655 5.73305 22.757 5.78176 22.859 5.84021C22.961 5.89866 23.0566 5.95224 23.0693 5.95712C23.0821 5.96686 22.9036 6.1276 22.6741 6.31758C22.1769 6.73162 22.0749 6.91672 22.2088 7.16027C22.3936 7.49638 22.604 7.54022 23.7131 7.47202L24.3251 7.43305L24.3888 7.63277L24.459 7.82761L24.1976 7.88119C23.5092 8.02245 22.6869 8.38778 22.1386 8.80183C21.8072 9.05025 21.8008 9.05512 21.5713 8.99667C21.4438 8.96257 21.1761 8.81644 20.9785 8.67031C20.7809 8.52905 20.5578 8.39753 20.4749 8.38291C20.3028 8.34882 20.0287 8.47059 19.9586 8.6216C19.8566 8.82618 20.0159 9.45455 20.3028 9.98063C20.3347 10.044 20.2645 10.0927 19.9394 10.2193C19.5251 10.3801 18.9068 10.6821 18.5944 10.8818C18.3012 11.062 18.2821 10.9646 18.5498 10.6139C18.7984 10.2875 19.1235 9.62017 19.1235 9.44968C19.1235 9.3961 19.2956 9.18177 19.5124 8.97231C19.9203 8.56314 20.3219 7.97374 20.4813 7.55483L20.5769 7.30153L20.2263 7.24795C19.8502 7.1895 19.761 7.20411 19.761 7.32102C19.761 7.41844 19.4104 8.06142 19.2574 8.23191L19.1426 8.3683L19.0024 8.07117L18.8622 7.77403L19.1235 7.31128C19.4614 6.69752 19.6908 6.0107 19.7418 5.45052C19.7801 4.99751 19.7801 4.99751 19.9394 5.02674C20.0223 5.04135 20.1753 5.07058 20.2773 5.08519ZM24.051 6.26399C24.1466 6.28835 24.1721 6.35654 24.1785 6.57087L24.1912 6.84365L23.9108 6.87288C23.7578 6.88749 23.49 6.90211 23.3179 6.90211H22.9992L23.4072 6.56113C23.8151 6.21528 23.8534 6.20067 24.051 6.26399ZM26.3076 7.58406C26.4542 7.96887 26.5243 8.83593 26.4478 9.41558C26.3713 10.0683 26.2438 10.5116 25.9952 11.0036C25.7976 11.4079 25.8104 11.5199 26.0717 11.6271C26.3203 11.7293 26.5179 11.593 26.7283 11.1789L26.9195 10.8038L27.2191 10.7746C27.8311 10.7113 28.5131 10.8818 29.0805 11.2422C29.4948 11.5101 29.9538 11.6709 30.3873 11.7147L30.757 11.7488L30.4382 11.9047C29.7179 12.2554 28.8255 12.309 27.8247 12.0655C27.2637 11.9242 27.2127 11.9193 27.0343 11.9875C26.7219 12.1142 26.6837 12.3772 26.9386 12.6695C27.2255 12.991 27.7291 13.8385 27.7291 13.9993C27.7291 14.3256 27.6717 14.3256 27.3084 14.0188C27.1171 13.858 26.7729 13.6388 26.5307 13.5268C25.7849 13.1663 25.4853 12.8887 25.396 12.46C25.345 12.2116 25.1155 12.0508 24.9052 12.1093C24.8287 12.1336 24.6502 12.2311 24.5163 12.3285C24.1466 12.5867 23.8215 12.65 22.8845 12.6451C22.3363 12.6451 21.9857 12.6695 21.7689 12.7182C21.5968 12.762 21.4438 12.7961 21.4375 12.7961C21.4247 12.7961 21.4183 12.7523 21.4183 12.6987C21.4183 12.5233 21.8454 12.27 22.7251 11.9388C23.6367 11.5978 23.7641 11.5053 23.6877 11.2569C23.6303 11.0815 23.49 11.0133 22.9992 10.8964C22.0303 10.6723 21.4056 10.307 21.0231 9.75169C20.8255 9.45455 20.8064 9.31329 20.9912 9.42533C21.2462 9.59094 21.6542 9.64452 22.5976 9.65427C23.6558 9.66401 24.0637 9.74195 24.459 10.005L24.6566 10.1414L24.5928 10.5457C24.5291 10.9061 24.5355 10.9548 24.6375 11.0425C24.7968 11.174 25.09 11.1692 25.2048 11.0279C25.3514 10.8526 25.4598 10.0586 25.4598 9.16716C25.4598 8.35856 25.447 8.28549 25.2112 7.65712C25.1793 7.57431 25.2303 7.54509 25.5745 7.45254C26.1355 7.30641 26.212 7.32102 26.3076 7.58406ZM5.19522 7.57919C6.18327 7.73506 6.87809 8.06629 7.44542 8.64595L7.79602 9.01128L8.24861 8.98206C9.16653 8.9236 9.96972 9.15742 10.5753 9.66401C10.8749 9.90756 11.3275 10.5116 11.4677 10.8526C11.557 11.0718 11.6717 11.1497 12.0797 11.2617C13.1124 11.5491 13.9984 12.2506 14.4637 13.1468C14.808 13.8142 14.8845 14.2233 14.859 15.256C14.8462 15.7626 14.8335 16.4835 14.8271 16.8537C14.8207 17.6185 14.8908 17.5552 14.1195 17.4577L13.6733 17.3993L12.8255 16.7368L11.9777 16.0695L12.0733 15.558C12.1944 14.9637 12.2008 14.691 12.1116 14.2672C11.9331 13.4342 11.5187 13.0056 11.1426 13.2686C10.996 13.3709 10.996 13.5122 11.1554 13.7801C11.3402 14.1016 11.4295 14.6471 11.3785 15.1294L11.3339 15.5483L11.047 15.3047C10.6454 14.9637 9.01355 13.4635 8.64382 13.103L8.33785 12.801L8.43984 12.4892C8.72032 11.6368 8.7012 10.9061 8.3761 10.3557C8.16574 9.99524 7.91713 9.91243 7.63028 10.1024C7.49004 10.2047 7.49004 10.3167 7.65578 10.5505C7.84701 10.8379 7.92351 11.325 7.83426 11.7927C7.79602 12.0119 7.75777 12.1921 7.74502 12.2018C7.7259 12.2213 6.43825 10.8964 5.52669 9.92218C4.97849 9.33278 4.83825 9.211 4.69163 9.20126C4.4749 9.18177 4.27092 9.30842 4.27092 9.45942C4.27092 9.5812 4.90199 10.2924 6.25976 11.6806C6.74422 12.1824 7.13944 12.6061 7.13944 12.6208C7.13944 12.6743 6.4255 12.5964 5.98566 12.499C5.49482 12.3918 4.87012 12.0898 4.62151 11.8414C4.4749 11.6952 4.41753 11.6709 4.21992 11.6855C3.95857 11.7001 3.81195 11.8511 3.8757 12.0265C3.93944 12.2165 4.64064 12.689 5.11873 12.8692C5.78167 13.1127 6.23426 13.1907 7.0502 13.1907L7.75777 13.1955L8.45896 13.858C8.84143 14.2233 9.52351 14.8517 9.96972 15.2463C10.4159 15.6457 10.7665 15.9867 10.741 16.0013C10.7155 16.0208 10.3777 16.0354 9.98884 16.0354C9.11554 16.0354 8.70757 15.9477 8.12749 15.6457C7.66853 15.4021 7.61116 15.3924 7.40717 15.5044C6.89084 15.7772 7.84701 16.391 9.07729 16.5712C9.70837 16.6638 10.1673 16.6638 10.8749 16.5712L11.4359 16.4933L11.9012 16.8489C12.1689 17.0534 12.3347 17.2093 12.2837 17.2191C12.239 17.2239 11.4295 17.1411 10.4797 17.0291C9.51713 16.917 8.54183 16.8294 8.25498 16.8294C7.7004 16.8294 7.0757 16.9317 6.66773 17.0924C6.41912 17.1898 6.41275 17.1898 6.32351 17.1022C6.1259 16.8927 5.76892 16.4007 5.57769 16.0597C5.44382 15.8162 5.32271 15.6749 5.22072 15.636C5.13785 15.6019 4.8255 15.4898 4.5259 15.3827C3.16813 14.9004 2.64542 13.9798 3.09801 12.9033C3.15538 12.7669 3.18725 12.6256 3.16813 12.5867C3.149 12.5477 2.91952 12.3918 2.65817 12.2408C1.81036 11.7537 1.33865 11.0718 1.21116 10.1511C1.13466 9.57633 1.21116 9.03564 1.42789 8.67518C1.74024 8.15884 2.48606 7.69122 3.21912 7.55483C3.69721 7.46715 4.54502 7.47689 5.19522 7.57919ZM24.6948 8.59237C24.7139 8.69466 24.7331 8.91873 24.7331 9.08922C24.7331 9.362 24.7203 9.39123 24.6247 9.35713C24.2359 9.23048 23.6367 9.09896 23.3052 9.06974L22.9291 9.03564L23.0821 8.94309C23.4263 8.74337 24.3442 8.42188 24.5801 8.41214C24.6183 8.41214 24.6693 8.49495 24.6948 8.59237ZM15.9681 16.3325C16.0191 16.6004 16.1339 17.0096 16.2167 17.2532C16.2996 17.4918 16.3633 17.6964 16.357 17.7013C16.3251 17.7256 15.6749 17.6331 15.6303 17.599C15.6048 17.5795 15.5857 17.2142 15.5857 16.7904C15.5857 16.1036 15.5984 16.011 15.7068 15.9185C15.7769 15.86 15.8406 15.8259 15.8534 15.8357C15.8661 15.8454 15.9171 16.0695 15.9681 16.3325ZM9.79123 17.5454C10.6135 17.638 11.3147 17.7159 11.353 17.7159C11.3849 17.7159 11.4104 18.0423 11.4104 18.505C11.4104 19.3721 11.4486 19.4695 11.7992 19.4695C12.1243 19.4695 12.1753 19.338 12.1753 18.5294C12.1753 17.8669 12.1817 17.8085 12.29 17.8279C12.3474 17.8426 14.0813 18.0471 16.1466 18.281L19.8884 18.7096V19.109C19.8884 19.5815 19.9522 19.7423 20.1689 19.8202C20.2964 19.8641 20.3602 19.8592 20.494 19.791C20.647 19.7131 20.6534 19.6887 20.6534 19.2747C20.6534 19.036 20.6725 18.8314 20.7044 18.8216C20.7299 18.8119 22.0877 18.9629 23.7259 19.1529C26.4414 19.4646 26.7155 19.5085 26.8622 19.6108C27.1681 19.83 27.1171 20.2537 26.7665 20.3999C26.6964 20.4291 26.1737 20.5022 25.6064 20.5655C25.039 20.6337 24.4972 20.6921 24.408 20.7068C24.2614 20.7262 24.2422 20.7068 24.1721 20.5168C24.0127 20.0589 23.3944 20.2148 23.3944 20.7116C23.3944 20.809 23.2924 20.8237 20.6088 21.1208C19.0725 21.2913 17.7211 21.4423 17.6127 21.452L17.4024 21.4813V20.9795C17.4024 20.4194 17.3323 20.2976 17.0135 20.2976C16.7139 20.2976 16.6375 20.4437 16.6375 21.038C16.6375 21.3302 16.6311 21.5641 16.6183 21.5641C16.6056 21.5641 14.8143 21.7638 12.6343 22.0025C10.4478 22.246 8.6502 22.4409 8.63745 22.4409C8.61833 22.4409 8.60558 22.0658 8.60558 21.6128C8.60558 20.848 8.59283 20.7749 8.47809 20.6873C8.3251 20.5704 8.17211 20.5655 7.98088 20.6678C7.84701 20.7408 7.84064 20.7701 7.84064 21.5933V22.4409L7.66853 22.4116C6.97371 22.285 6.22151 21.944 5.80717 21.5738L5.55857 21.3497L5.70518 21.1305C5.95378 20.7506 6.05578 20.4047 6.05578 19.9371C6.05578 19.4695 5.97291 19.1577 5.7498 18.7681C5.67331 18.6365 5.60956 18.5148 5.60956 18.4904C5.60956 18.4125 6.03028 18.0861 6.39363 17.8815C6.88446 17.6039 7.51554 17.4285 8.21036 17.3798C8.25498 17.3798 8.96255 17.4529 9.79123 17.5454ZM3.39124 18.4807C3.98406 18.6609 4.46215 18.8216 4.46215 18.8411C4.46215 18.8606 4.43665 18.9337 4.39841 19.0019C4.34104 19.1188 4.30279 19.1285 3.98406 19.1285C3.70359 19.1285 3.46773 19.0749 2.8494 18.8801C2.42231 18.7437 2.03347 18.6073 1.99522 18.583C1.89323 18.5196 1.88685 18.2907 1.98884 18.2128C2.12271 18.1105 2.29482 18.1446 3.39124 18.4807ZM5.27809 19.7374C5.32271 19.7666 5.30996 20.0589 5.26534 20.093C5.20159 20.1368 1.15378 20.1904 0.975299 20.1417C0.784064 20.093 0.733068 19.9274 0.860558 19.7812L0.96255 19.6595L3.11076 19.6936C4.29004 19.7131 5.26534 19.7325 5.27809 19.7374ZM4.40478 20.8675C4.43665 20.9357 4.44303 21.0136 4.41753 21.0331C4.39203 21.0526 3.88207 21.2182 3.29562 21.3936C2.37131 21.6761 2.1992 21.7151 2.06534 21.6712C1.91235 21.6128 1.85498 21.4179 1.96335 21.2864C1.98884 21.2572 2.36494 21.1208 2.80478 20.9844C3.42948 20.7944 3.67809 20.7408 3.97131 20.736C4.30916 20.736 4.34104 20.7457 4.40478 20.8675Z" fill="#008080"/>
</svg>
