<svg width="13" height="14" viewBox="0 0 13 14" fill="none" xmlns="http://www.w3.org/2000/svg">
<path d="M10.0016 4.60064C10.0016 3.64569 9.62224 2.72985 8.94699 2.0546C8.27174 1.37935 7.35591 1 6.40096 1C5.44601 1 4.53017 1.37935 3.85492 2.0546C3.17967 2.72985 2.80032 3.64569 2.80032 4.60064C2.80032 8.80138 1 10.0016 1 10.0016H11.8019C11.8019 10.0016 10.0016 8.80138 10.0016 4.60064Z" stroke="white" stroke-linecap="round" stroke-linejoin="round"/>
<path d="M7.43916 12.402C7.33366 12.5839 7.18222 12.7349 7.00002 12.8398C6.81782 12.9448 6.61124 13 6.40098 13C6.19071 13 5.98414 12.9448 5.80193 12.8398C5.61973 12.7349 5.4683 12.5839 5.36279 12.402" stroke="white" stroke-linecap="round" stroke-linejoin="round"/>
</svg>
