<svg width="16" height="16" viewBox="0 0 16 16" fill="none" xmlns="http://www.w3.org/2000/svg">
<path d="M11.2858 8.57139H8.57153V11.2857C8.57153 11.3642 8.50725 11.4285 8.42868 11.4285H7.57153C7.49296 11.4285 7.42868 11.3642 7.42868 11.2857V8.57139H4.71439C4.63582 8.57139 4.57153 8.5071 4.57153 8.42853V7.57139C4.57153 7.49281 4.63582 7.42853 4.71439 7.42853H7.42868V4.71424C7.42868 4.63567 7.49296 4.57139 7.57153 4.57139H8.42868C8.50725 4.57139 8.57153 4.63567 8.57153 4.71424V7.42853H11.2858C11.3644 7.42853 11.4287 7.49281 11.4287 7.57139V8.42853C11.4287 8.5071 11.3644 8.57139 11.2858 8.57139Z" fill="white"/>
<path d="M8 16C3.58214 16 0 12.4179 0 8C0 3.58214 3.58214 0 8 0C12.4179 0 16 3.58214 16 8C16 12.4179 12.4179 16 8 16ZM8 1.35714C4.33214 1.35714 1.35714 4.33214 1.35714 8C1.35714 11.6679 4.33214 14.6429 8 14.6429C11.6679 14.6429 14.6429 11.6679 14.6429 8C14.6429 4.33214 11.6679 1.35714 8 1.35714Z" fill="white"/>
</svg>
