<svg width="63" height="63" viewBox="0 0 63 63" fill="none" xmlns="http://www.w3.org/2000/svg">
<circle cx="31.5" cy="31.5" r="31" stroke="#008080" stroke-opacity="0.5"/>
<path d="M31.6953 20.7781C31.2453 20.8484 30.7578 20.9656 30.4063 21.0875C28.6813 21.6922 27.3406 23.0281 26.7266 24.7484C26.5813 25.1562 26.5625 25.1891 26.3422 25.3203C24.8516 26.2297 23.8484 27.6312 23.4875 29.3281C23.3656 29.8953 23.3656 31.0672 23.4875 31.6625C23.5859 32.1594 23.525 32.1266 24.0688 31.9672C24.2609 31.9156 24.3125 31.8781 24.2938 31.8266C24.275 31.7844 24.2328 31.5594 24.1953 31.325C23.9703 29.9328 24.3359 28.4656 25.2078 27.3125C26.5531 25.5312 28.9438 24.8094 31.0859 25.5453C31.4047 25.6578 31.9156 25.8922 32.1313 26.0375C32.2391 26.1078 32.2344 26.1125 31.8734 26.3C31.2781 26.6141 30.9266 26.8766 30.4016 27.4016C29.5203 28.2875 28.9906 29.2531 28.7422 30.4531C28.6484 30.8891 28.6203 31.9437 28.6859 32.4547L28.7234 32.75H26.3469C24.6172 32.75 23.9188 32.7641 23.7781 32.8062C23.375 32.9281 23 33.4437 23 33.875C23 34.4234 23.5438 35 24.0688 35C24.1391 35 24.1672 35.0375 24.1906 35.15C24.2281 35.3703 25.25 42.8937 25.25 42.9641C25.25 42.9922 25.3016 43.0719 25.3672 43.1328L25.4797 43.25H32H38.5203L38.6328 43.1328C38.6984 43.0719 38.75 42.9922 38.75 42.9641C38.75 42.8937 39.7719 35.3703 39.8094 35.15C39.8328 35.0375 39.8609 35 39.9313 35C40.1703 35 40.4234 34.8781 40.6484 34.6484C41.1078 34.1937 41.1219 33.6078 40.6906 33.1297L40.4938 32.9094L40.5594 32.4641C40.6906 31.5875 40.6063 30.6453 40.3203 29.7734C40.1328 29.2016 39.9266 28.775 39.575 28.25C39.4297 28.0344 39.3172 27.8422 39.3219 27.8234C39.3313 27.8 40.1375 26.8344 41.1172 25.6766C43.1891 23.2203 43.2266 23.1641 43.2266 22.5125C43.2266 22.1328 43.2078 22.0531 43.0813 21.7812C42.5984 20.7641 41.2859 20.4266 40.3672 21.0875C40.0766 21.2937 39.9781 21.4344 38.7969 23.3422C38.3703 24.0266 38.0141 24.5891 38 24.5938C37.9859 24.5938 37.9016 24.4297 37.8125 24.2281C37.4 23.3094 36.5797 22.3531 35.6797 21.7484C35.1031 21.3594 34.3766 21.0547 33.6406 20.8859C33.2516 20.7969 32.0188 20.7312 31.6953 20.7781ZM33.1953 21.5703C35.1266 21.8844 36.7156 23.225 37.3484 25.0812L37.4703 25.4562L37.2641 25.7891L37.0578 26.1266L36.5328 25.9484C35.5719 25.6203 34.4375 25.5453 33.4672 25.7375L33.125 25.8078L32.7641 25.5594C31.2688 24.5328 29.3984 24.2422 27.6031 24.7625C27.4953 24.7953 27.5 24.7812 27.6641 24.4484C28.0109 23.7594 28.4844 23.1594 29.0328 22.7047C30.2188 21.7391 31.7141 21.3266 33.1953 21.5703ZM41.8156 21.5516C41.9188 21.5797 42.0781 21.6828 42.1906 21.7953C42.5047 22.1141 42.5844 22.5359 42.3922 22.9109C42.2984 23.0938 38.825 27.2656 38.7688 27.2656C38.7547 27.2656 38.6234 27.1625 38.4781 27.0406C38.3328 26.9141 38.1078 26.7406 37.9766 26.6562C37.85 26.5719 37.7375 26.4969 37.7281 26.4922C37.7234 26.4875 38.3609 25.4516 39.1484 24.1906C40.5828 21.8937 40.7656 21.6359 41.0656 21.5516C41.2672 21.4906 41.6 21.4906 41.8156 21.5516ZM35.4359 26.4453C36.8656 26.6609 38.2484 27.5516 39.0172 28.7562C39.4297 29.3984 39.7297 30.2234 39.8328 31.0016C39.8891 31.4094 39.8656 32.225 39.7906 32.5625L39.7531 32.7266L38.7781 32.75C37.8219 32.7734 37.8031 32.7734 37.7141 32.8859C37.6344 32.9844 37.625 33.0828 37.625 34.0625V35.1266L37.5031 35.2531C37.3531 35.3984 37.1656 35.4125 37.0109 35.2859C36.9031 35.2016 36.8984 35.1687 36.875 34.3812C36.8469 33.4953 36.8047 33.3453 36.5141 33.0687C36.0594 32.6375 35.4266 32.6469 34.9766 33.1016C34.7 33.3734 34.625 33.5797 34.625 34.0484C34.625 34.3438 34.6109 34.3906 34.5031 34.5031C34.3438 34.6625 34.1422 34.6625 33.9922 34.5078C33.8797 34.4 33.875 34.3766 33.875 33.6875C33.875 32.9984 33.8703 32.975 33.7578 32.8672L33.6453 32.75H31.5641H29.4828L29.4266 32.3375C29.2813 31.2031 29.4641 30.1953 29.9938 29.1781C31.0297 27.2 33.2 26.1078 35.4359 26.4453ZM33.125 33.875V34.25H28.5547H23.9797L23.8672 34.1328C23.7922 34.0625 23.75 33.9641 23.75 33.875C23.75 33.7859 23.7922 33.6875 23.8672 33.6172L23.9797 33.5H28.5547H33.125V33.875ZM36.0078 33.6172C36.1203 33.725 36.125 33.7484 36.125 34.4422C36.125 35.3141 36.1625 35.4641 36.4766 35.7734C36.8188 36.1203 37.1844 36.2047 37.6391 36.05C38 35.9281 38.375 35.4312 38.375 35.075C38.375 35.0141 38.4313 35 38.7266 35H39.0781L39.0547 35.1266C39.0406 35.2016 38.8203 36.8187 38.5625 38.7266C38.3 40.6344 38.0797 42.2656 38.0656 42.3453L38.0375 42.5H32H25.9625L25.9344 42.3453C25.9203 42.2656 25.7 40.6344 25.4375 38.7266C25.1797 36.8187 24.9594 35.2016 24.9453 35.1266L24.9219 35H29.1828C33.0922 35 33.4484 35.0047 33.5047 35.0797C33.6078 35.2016 34.025 35.375 34.2219 35.375C34.5453 35.375 34.775 35.2766 35.0234 35.0234C35.3 34.7469 35.375 34.5453 35.375 34.0672C35.375 33.7719 35.3891 33.7156 35.4922 33.6172C35.5625 33.5422 35.6609 33.5 35.75 33.5C35.8391 33.5 35.9375 33.5422 36.0078 33.6172ZM40.1328 33.6172C40.2078 33.6875 40.25 33.7859 40.25 33.875C40.25 33.9641 40.2078 34.0625 40.1328 34.1328C40.0203 34.25 40.0063 34.25 39.1953 34.25H38.375V33.875V33.5H39.1953C40.0063 33.5 40.0203 33.5 40.1328 33.6172Z" fill="#008080"/>
<path d="M31.625 22.625V23H32H32.375V22.625V22.25H32H31.625V22.625Z" fill="#008080"/>
<path d="M33.875 24.125V24.5H34.25H34.625V24.125V23.75H34.25H33.875V24.125Z" fill="#008080"/>
<path d="M33.5 28.25V28.625H33.875H34.25V28.25V27.875H33.875H33.5V28.25Z" fill="#008080"/>
<path d="M35.75 29.0749C35.75 29.6749 35.8109 29.8624 36.1016 30.1484C36.5797 30.6312 37.2406 30.6218 37.6859 30.1249C37.9391 29.8437 38 29.6421 38 29.0749V28.6249H37.625H37.25V29.0703C37.25 29.4828 37.2406 29.5296 37.1328 29.6328C37.0625 29.7078 36.9641 29.7499 36.875 29.7499C36.7859 29.7499 36.6875 29.7078 36.6172 29.6328C36.5094 29.5296 36.5 29.4828 36.5 29.0703V28.6249H36.125H35.75V29.0749Z" fill="#008080"/>
<path d="M31.625 29.75V30.125H32H32.375V29.75V29.375H32H31.625V29.75Z" fill="#008080"/>
<path d="M26.1454 36.1297C26.0047 36.1531 25.8782 36.1812 25.8688 36.1953C25.8454 36.2187 25.9438 36.9265 25.9719 36.9593C25.9907 36.9781 26.6563 36.889 26.6797 36.8656C26.6891 36.8562 26.6704 36.6781 26.6422 36.4625C26.586 36.0312 26.6188 36.0547 26.1454 36.1297Z" fill="#008080"/>
<path d="M33.125 37.6999C33.125 38.2999 33.1859 38.4874 33.4766 38.7734C33.9547 39.2562 34.6156 39.2468 35.0609 38.7499C35.3141 38.4687 35.375 38.2671 35.375 37.6999V37.2499H35H34.625V37.6953C34.625 38.1078 34.6156 38.1546 34.5078 38.2578C34.3578 38.4124 34.1422 38.4124 33.9922 38.2578C33.8844 38.1546 33.875 38.1078 33.875 37.6953V37.2499H33.5H33.125V37.6999Z" fill="#008080"/>
<path d="M26.361 37.7656C26.2344 37.7891 26.1172 37.8172 26.1031 37.8313C26.075 37.8641 26.5438 41.3703 26.5813 41.4078C26.6 41.4266 27.2703 41.3375 27.2938 41.3141C27.2985 41.3094 27.1953 40.5031 27.0594 39.5235L26.8203 37.7422L26.7031 37.7328C26.6375 37.7328 26.4828 37.7469 26.361 37.7656Z" fill="#008080"/>
<path d="M28.25 27.125V27.5H28.625H29V27.125V26.75H28.625H28.25V27.125Z" fill="#008080"/>
<path d="M25.25 29.4499C25.25 30.0499 25.3109 30.2374 25.6016 30.5234C26.0797 31.0062 26.7406 30.9968 27.1859 30.4999C27.4391 30.2187 27.5 30.0171 27.5 29.4499V28.9999H27.125H26.75V29.4453C26.75 29.8578 26.7406 29.9046 26.6328 30.0078C26.5625 30.0828 26.4641 30.1249 26.375 30.1249C26.2859 30.1249 26.1875 30.0828 26.1172 30.0078C26.0094 29.9046 26 29.8578 26 29.4453V28.9999H25.625H25.25V29.4499Z" fill="#008080"/>
</svg>
