<svg width="290" height="290" viewBox="0 0 290 290" fill="none" xmlns="http://www.w3.org/2000/svg">
<g filter="url(#filter0_d_145_1039)">
<circle cx="145" cy="141" r="125" fill="#008080"/>
<path d="M46.436 156V126.39H68.402V133.278H55.088V137.52H67.394V144.408H55.088V149.112H68.402V156H46.436ZM71.5687 156V149.364L85.6807 131.304V133.74H71.5687V126.39H94.2907V133.026L80.1787 151.086V148.65H94.9627V156H71.5687ZM98.4848 156V126.39H113.059C116.559 126.39 119.261 127.23 121.165 128.91C123.069 130.59 124.021 132.914 124.021 135.882C124.021 137.842 123.587 139.536 122.719 140.964C121.879 142.364 120.633 143.456 118.981 144.24C117.329 144.996 115.327 145.374 112.975 145.374L113.269 144.156H115.747C116.979 144.156 118.085 144.52 119.065 145.248C120.045 145.948 120.857 146.872 121.501 148.02L126.079 156H116.125L111.043 146.676C110.819 146.256 110.455 145.962 109.951 145.794C109.447 145.598 108.929 145.5 108.397 145.5H107.557V156H98.4848ZM107.557 139.158H111.421C112.709 139.158 113.689 138.92 114.361 138.444C115.033 137.94 115.369 137.184 115.369 136.176C115.369 135.196 115.033 134.468 114.361 133.992C113.689 133.516 112.709 133.278 111.421 133.278H107.557V139.158ZM135.443 156V141.762L137.207 146.634L123.683 126.39H134.099L140.945 137.394H139.223L146.111 126.39H156.233L142.709 146.634L144.515 141.762V156H135.443ZM158.983 156V126.39H171.541C175.125 126.39 178.135 126.992 180.571 128.196C183.035 129.4 184.897 131.108 186.157 133.32C187.417 135.504 188.047 138.122 188.047 141.174C188.047 144.198 187.417 146.816 186.157 149.028C184.897 151.24 183.035 152.962 180.571 154.194C178.135 155.398 175.125 156 171.541 156H158.983ZM168.055 148.692H170.995C173.739 148.692 175.769 148.076 177.085 146.844C178.401 145.612 179.059 143.722 179.059 141.174C179.059 138.598 178.401 136.708 177.085 135.504C175.769 134.3 173.739 133.698 170.995 133.698H168.055V148.692ZM192.206 156V126.39H214.172V133.278H200.858V137.52H213.164V144.408H200.858V149.112H214.172V156H192.206ZM217.758 156V126.39H232.332C235.832 126.39 238.534 127.23 240.438 128.91C242.342 130.59 243.294 132.914 243.294 135.882C243.294 137.842 242.86 139.536 241.992 140.964C241.152 142.364 239.906 143.456 238.254 144.24C236.602 144.996 234.6 145.374 232.248 145.374L232.542 144.156H235.02C236.252 144.156 237.358 144.52 238.338 145.248C239.318 145.948 240.13 146.872 240.774 148.02L245.352 156H235.398L230.316 146.676C230.092 146.256 229.728 145.962 229.224 145.794C228.72 145.598 228.202 145.5 227.67 145.5H226.83V156H217.758ZM226.83 139.158H230.694C231.982 139.158 232.962 138.92 233.634 138.444C234.306 137.94 234.642 137.184 234.642 136.176C234.642 135.196 234.306 134.468 233.634 133.992C232.962 133.516 231.982 133.278 230.694 133.278H226.83V139.158Z" fill="white"/>
</g>
<defs>
<filter id="filter0_d_145_1039" x="0" y="0" width="290" height="290" filterUnits="userSpaceOnUse" color-interpolation-filters="sRGB">
<feFlood flood-opacity="0" result="BackgroundImageFix"/>
<feColorMatrix in="SourceAlpha" type="matrix" values="0 0 0 0 0 0 0 0 0 0 0 0 0 0 0 0 0 0 127 0" result="hardAlpha"/>
<feOffset dy="4"/>
<feGaussianBlur stdDeviation="10"/>
<feComposite in2="hardAlpha" operator="out"/>
<feColorMatrix type="matrix" values="0 0 0 0 0 0 0 0 0 0 0 0 0 0 0 0 0 0 0.18 0"/>
<feBlend mode="normal" in2="BackgroundImageFix" result="effect1_dropShadow_145_1039"/>
<feBlend mode="normal" in="SourceGraphic" in2="effect1_dropShadow_145_1039" result="shape"/>
</filter>
</defs>
</svg>
