<svg width="60" height="60" viewBox="0 0 60 60" fill="none" xmlns="http://www.w3.org/2000/svg">
<path d="M9.082 0.164078C7.96872 0.51564 7.33591 1.07814 6.85544 2.13283L6.55075 2.8008L6.58591 6.35158L6.62107 9.90236L6.93747 10.5C7.27732 11.1445 7.88669 11.7422 8.50778 12.0469L8.90622 12.2344V13.8633V15.5039L5.77732 19.6758C4.06638 21.9727 2.55466 24.082 2.42576 24.375C1.86326 25.6289 1.87498 25.3477 1.87498 38.2734C1.87498 51.5977 1.83982 50.9297 2.55466 52.3242C2.94138 53.0977 4.23044 54.3633 5.03904 54.75C6.44528 55.4414 6.19919 55.4297 16.8164 55.4297L26.5429 55.4414L26.9414 56.0156C27.4687 56.8008 28.8632 58.1016 29.7421 58.6406C32.1445 60.0938 35.2031 60.375 37.8281 59.3789C38.4843 59.1328 41.4023 57.5156 46.1132 54.7969C50.1093 52.4883 53.6484 50.4258 53.9648 50.2148C55.3476 49.3242 56.4374 48.0586 57.1991 46.4649C57.914 44.9883 58.0663 44.25 58.0663 42.3633C58.0663 40.9688 58.0195 40.5938 57.7968 39.8438C56.9648 37.207 55.2773 35.1914 52.9101 34.043C51.3632 33.293 50.6132 33.1172 48.8085 33.1172C46.4179 33.1055 45.6093 33.3984 41.4257 35.8359L39.4335 36.9961L39.3749 31.418C39.3163 25.9805 39.3046 25.8164 39.0468 25.0781C38.6953 24.082 38.4374 23.707 35.1328 19.3125L32.3437 15.586V13.8867V12.1875L32.6367 12.0703C33.1523 11.8711 34.0664 10.9219 34.3476 10.2774C34.6171 9.6797 34.6289 9.59767 34.6289 6.21095V2.75392L34.3242 2.10939C33.9609 1.33595 33.3632 0.726578 32.6132 0.339859L32.0507 0.058609L20.8007 0.0351715C11.9531 0.0234528 9.44528 0.0468903 9.082 0.164078ZM31.957 2.73048L32.2851 3.04689L32.3203 6.01173C32.3437 8.64845 32.332 9.01173 32.1445 9.37502C32.0273 9.59767 31.8046 9.84377 31.6406 9.9258C31.2421 10.125 9.96091 10.1485 9.57419 9.94923C8.91794 9.60939 8.90622 9.57423 8.90622 6.21095C8.90622 2.87111 8.91794 2.82423 9.55075 2.48439C9.71481 2.39064 12.8906 2.35548 20.707 2.37892L31.6406 2.40236L31.957 2.73048ZM30 13.5938V14.7656H24.5976C18.9843 14.7656 18.9023 14.7774 18.4921 15.2813C18.0703 15.7852 18.3046 16.6524 18.9492 16.9805C19.125 17.0742 20.9296 17.1094 24.8789 17.1094H30.5625L33.4687 20.9883C36.3515 24.8438 36.914 25.6875 36.914 26.2149V26.4844H20.5546H4.19529L4.27732 26.0977C4.41794 25.4531 4.79294 24.9024 7.89841 20.7539C9.56247 18.5391 10.9922 16.5586 11.0859 16.336C11.2031 16.0547 11.25 15.4336 11.25 14.1797V12.4219H20.625H30V13.5938ZM37.0312 33.6094V38.3789L33.4921 40.418C31.5351 41.543 29.6484 42.6563 29.2968 42.9024C28.4414 43.4649 27.2109 44.7188 26.7773 45.457L26.4257 46.0547H15.3281H4.21872V37.4414V28.8281H20.625H37.0312V33.6094ZM50.4374 35.625C52.8398 36.2344 54.6913 37.9336 55.4413 40.2188C55.6757 40.9336 55.7226 41.3086 55.7226 42.4805C55.7109 44.0742 55.4999 44.8711 54.7499 46.1016C53.9648 47.4024 53.2499 47.9649 49.8515 49.9219C48.1171 50.918 46.6523 51.75 46.582 51.7734C46.4531 51.8086 39.4218 39.7617 39.5038 39.668C39.6445 39.5391 45.621 36.1406 46.0546 35.9531C47.3671 35.3789 48.996 35.25 50.4374 35.625ZM40.9335 46.9453C42.8554 50.2734 44.3906 53.0391 44.332 53.0859C44.2031 53.2031 38.2851 56.6133 37.6406 56.9414C36.9023 57.3164 35.4726 57.6563 34.6406 57.6563C31.3242 57.6445 28.3945 55.2891 27.7148 52.0664C27.2109 49.7109 27.9023 47.4141 29.6367 45.7031C30.4218 44.9297 30.914 44.6016 33.9257 42.8672C35.8007 41.7891 37.3476 40.8984 37.3828 40.8984C37.4179 40.8984 39.0117 43.6172 40.9335 46.9453ZM25.3828 48.832C25.207 49.9453 25.1718 50.9063 25.3007 51.7969C25.3828 52.3242 25.4765 52.8281 25.5117 52.9219C25.5703 53.0625 24.2812 53.0859 16.2187 53.0625C6.98435 53.0273 6.84372 53.0273 6.31638 52.7813C5.5195 52.4063 4.92185 51.8203 4.54685 51.0352C4.2656 50.4375 4.21872 50.1797 4.21872 49.3594V48.3984H14.8359H25.4648L25.3828 48.832Z" fill="#008080"/>
<path d="M14.2382 14.8945C13.3007 15.4336 13.4414 16.8047 14.4609 17.0625C15.5039 17.3203 16.3242 15.9141 15.5625 15.1523C15.2343 14.8359 14.5781 14.6953 14.2382 14.8945Z" fill="#008080"/>
<path d="M20.0976 32.1211C19.5 32.4727 19.4531 32.625 19.4531 34.711V36.6797H17.5664C15.621 36.6797 15.3398 36.7383 14.9765 37.1953C14.5546 37.6992 14.789 38.5664 15.4335 38.8946C15.5859 38.9766 16.4179 39.0235 17.5664 39.0235H19.4531V41.0039C19.4531 42.9258 19.4648 42.9844 19.7343 43.2774C20.2617 43.8516 21.0351 43.8164 21.4921 43.1953C21.7148 42.9024 21.7382 42.6797 21.7734 40.9453L21.8085 39.0235H23.6132C24.6093 39.0235 25.5468 38.9766 25.7109 38.9063C26.4257 38.6367 26.6367 37.5938 26.0859 37.043C25.7812 36.7383 25.7578 36.7383 23.8007 36.7031L21.8203 36.668L21.7734 34.6875C21.7382 32.7422 21.7382 32.6953 21.4335 32.4024C21.0937 32.0625 20.4375 31.9219 20.0976 32.1211Z" fill="#008080"/>
</svg>
