<svg width="63" height="63" viewBox="0 0 63 63" fill="none" xmlns="http://www.w3.org/2000/svg">
<circle cx="31.5" cy="31.5" r="31" stroke="#008080" stroke-opacity="0.5"/>
<g clip-path="url(#clip0_299_2001)">
<path d="M23.2484 20.2343C22.7984 20.4593 22.4844 20.914 22.2547 21.664C22.1984 21.8421 21.6687 23.9983 21.0781 26.4546L20 30.9171V32.7968C20 34.2921 20.0141 34.7515 20.0703 35.0374C20.1687 35.5296 20.4875 36.1671 20.8203 36.5374L21.0875 36.828L20.8672 37.0718C20.7453 37.2077 20.5953 37.4186 20.5297 37.5452C20.375 37.8499 20.2719 38.3749 20.3047 38.6515C20.3422 38.914 20.5062 39.4436 20.5672 39.4765C20.6609 39.5374 20.6 39.5936 20.45 39.5936C20.2719 39.5936 20.0656 39.7577 20.0234 39.9311C20.0047 39.9921 20 40.6108 20.0094 41.3093L20.0234 42.5702L20.1547 42.8374C20.45 43.4421 21.0406 43.8218 21.8094 43.9108C22.0766 43.939 25.8594 43.953 32.3047 43.9436L42.3828 43.9296L42.6781 43.8218C43.2406 43.6202 43.6203 43.3015 43.8453 42.8374L43.9766 42.5702L43.9906 41.2858C44 40.3624 43.9906 39.964 43.9484 39.8655C43.8875 39.7155 43.6906 39.5936 43.5078 39.5936C43.3906 39.5936 43.3484 39.5327 43.4328 39.4765C43.4937 39.4436 43.6578 38.914 43.6906 38.6561C43.7562 38.1499 43.5266 37.503 43.1234 37.0624L42.8891 36.8046L43.1281 36.5421C43.4422 36.1905 43.6906 35.764 43.8453 35.3046L43.9719 34.9296L43.9906 32.914C44.0047 31.114 44 30.8843 43.9297 30.753C43.8641 30.6311 43.3109 30.3171 40.4469 28.7561C27.3125 21.6077 25.1422 20.4311 24.8047 20.2858C24.4812 20.1452 24.3687 20.1171 23.9844 20.103C23.5625 20.089 23.525 20.0936 23.2484 20.2343ZM24.4156 21.1436C24.5609 21.2046 28.4937 23.328 33.1531 25.864L41.6281 30.4765L31.3672 30.4905C25.7281 30.4952 21.1016 30.4952 21.0922 30.4858C21.0734 30.4624 23.0187 22.414 23.1453 21.9921C23.2719 21.5655 23.4359 21.2515 23.5906 21.1296C23.7594 20.9983 24.0734 21.003 24.4156 21.1436ZM43.0531 32.6655L43.0391 33.8983L41.8766 33.9218L40.7094 33.9452L40.5969 34.0765C40.4375 34.264 40.4469 34.489 40.6203 34.6811L40.7562 34.8358L41.8672 34.8499L42.9781 34.864L42.95 34.9905C42.8844 35.2624 42.6359 35.689 42.3969 35.9374C41.9422 36.4108 41.3234 36.7577 40.5875 36.9546C40.2125 37.053 40.0203 37.0765 39.4766 37.0811C38.9094 37.0858 38.7734 37.0718 38.4687 36.978C38.2766 36.9171 38.0047 36.7905 37.8687 36.6968C37.3437 36.3358 37.3156 36.3358 36.8469 36.6921C36.1625 37.2124 35.5484 37.414 34.6719 37.4093C34.1703 37.4093 33.6875 37.3436 33.6875 37.2733C33.6875 37.264 34.0344 36.7202 34.4609 36.0686L35.2391 34.8827L36.0828 34.8593L36.9312 34.8358L37.0672 34.6811C37.2406 34.489 37.25 34.264 37.0906 34.0765L36.9781 33.9452L28.9672 33.9218L20.9609 33.8983L20.9469 32.6655L20.9375 31.4374H32H43.0625L43.0531 32.6655ZM24.6078 35.9233C25.1141 36.6968 25.2875 36.9968 25.25 37.0343C25.2172 37.0671 24.95 37.0858 24.4859 37.0811C23.7266 37.0765 23.3797 37.0155 22.7656 36.7624C21.8984 36.4155 21.2328 35.7452 21.0406 35.0327L20.9937 34.8593H22.4516H23.9141L24.6078 35.9233ZM34.0812 34.9155C33.8328 35.328 30.4578 40.4515 30.3641 40.5499C30.1062 40.8311 29.5766 40.953 29.1828 40.8218C29.0891 40.789 28.9391 40.6858 28.8453 40.5874C28.7094 40.4515 25.2828 35.2765 25.1047 34.939C25.0625 34.864 25.2875 34.8593 29.5859 34.8593C33.1953 34.8593 34.1094 34.8733 34.0812 34.9155ZM22.2547 37.5733C23.3281 38.0608 24.6172 38.1733 25.7656 37.8874C25.8734 37.8593 25.9203 37.9155 26.4219 38.689C26.7172 39.1436 26.9703 39.5327 26.975 39.5561C26.9844 39.5749 25.9297 39.5936 24.6312 39.5936C22.0344 39.5936 21.9641 39.589 21.6359 39.3171C21.1859 38.9421 21.1344 38.178 21.5375 37.7468C21.6359 37.6436 21.9078 37.4374 21.95 37.4374C21.9547 37.4374 22.0906 37.4983 22.2547 37.5733ZM42.2469 37.5593C42.4672 37.7093 42.5234 37.7796 42.6406 38.0233C42.8422 38.4452 42.7016 39.0593 42.3406 39.3358C41.9937 39.603 42.1391 39.5936 36.9594 39.5936C34.3344 39.5936 32.1875 39.5796 32.1875 39.5655C32.1875 39.5421 33.0547 38.1968 33.1062 38.1452C33.1156 38.1358 33.3172 38.178 33.5562 38.239C33.9219 38.3327 34.1047 38.3515 34.6953 38.3468C35.6609 38.3468 36.2562 38.1827 37.0391 37.714L37.3531 37.5218L37.6391 37.6624C38.2156 37.9483 38.5953 38.0233 39.4531 38.0233C40.1328 38.0233 40.2875 38.0046 40.7187 37.8968C40.9906 37.8265 41.3797 37.6999 41.5859 37.6108C41.7922 37.5218 41.9844 37.4468 42.0125 37.4421C42.0406 37.4374 42.1484 37.4936 42.2469 37.5593ZM27.8281 40.8358C28.3203 41.5905 29.0797 41.9468 29.8859 41.8015C30.5187 41.689 30.95 41.403 31.3203 40.8593L31.55 40.5311H37.3062H43.0625V41.3936C43.0625 41.8952 43.0391 42.3171 43.0109 42.3921C42.9359 42.589 42.7859 42.7343 42.5234 42.8561L42.2891 42.9686H32H21.7109L21.4766 42.8561C21.2141 42.7343 21.0641 42.589 20.9891 42.3921C20.9609 42.3171 20.9375 41.8952 20.9375 41.3936V40.5311H24.2844H27.6312L27.8281 40.8358Z" fill="#008080"/>
<path d="M24.6313 23.3516C24.2234 23.5813 24.3969 24.2188 24.8609 24.2188C25.2781 24.2188 25.4844 23.7078 25.1844 23.4266C25.0438 23.2953 24.7953 23.2625 24.6313 23.3516Z" fill="#008080"/>
<path d="M27.1437 24.1671C27.0875 24.1905 26.9984 24.2702 26.9375 24.3452C26.8016 24.5186 26.8297 24.8046 27.0078 24.9546C27.2984 25.2077 27.7812 24.9968 27.7812 24.6218C27.7812 24.3124 27.4156 24.0546 27.1437 24.1671Z" fill="#008080"/>
<path d="M23.3234 26.3703C23.1359 26.5578 23.1359 26.7875 23.3234 26.9938C23.4359 27.1203 23.4922 27.1484 23.6562 27.1484C23.8203 27.1484 23.8766 27.1203 23.9937 26.9891C24.1156 26.8531 24.1344 26.8063 24.1109 26.6375C24.0547 26.2438 23.6047 26.0891 23.3234 26.3703Z" fill="#008080"/>
<path d="M29.089 26.464C28.775 26.7781 29.0562 27.3265 29.4922 27.2468C29.6797 27.2093 29.8906 26.9796 29.8906 26.8156C29.8906 26.6609 29.7734 26.4359 29.6609 26.3749C29.4781 26.2812 29.2344 26.3187 29.089 26.464Z" fill="#008080"/>
<path d="M31.9672 28.4139C31.9062 28.4561 31.8359 28.5686 31.8078 28.6671C31.7422 28.8921 31.8359 29.103 32.0562 29.2155C32.1781 29.2764 32.2344 29.2811 32.3797 29.2389C32.6047 29.1733 32.7031 29.0327 32.7031 28.7936C32.7031 28.5264 32.5203 28.3436 32.2578 28.3436C32.1547 28.3436 32.0234 28.3764 31.9672 28.4139Z" fill="#008080"/>
<path d="M35.2953 28.5077C35.2344 28.5499 35.164 28.6624 35.1359 28.7608C35.0703 28.9858 35.164 29.1967 35.3844 29.3092C35.5062 29.3702 35.5625 29.3749 35.7078 29.3327C35.9328 29.2624 36.0312 29.1264 36.0312 28.878C36.0312 28.7139 36.0078 28.6577 35.8859 28.5592C35.7219 28.4186 35.4547 28.3952 35.2953 28.5077Z" fill="#008080"/>
<path d="M24.6265 28.7233C24.5844 28.7467 24.514 28.8358 24.4719 28.9155C24.275 29.2905 24.6687 29.7264 25.0625 29.5623C25.5219 29.3748 25.3859 28.667 24.889 28.6717C24.7906 28.6717 24.6734 28.6952 24.6265 28.7233Z" fill="#008080"/>
<path d="M27.7578 28.7796C27.6781 28.8452 27.6266 28.9484 27.6078 29.0749C27.5891 29.2296 27.6031 29.2859 27.7063 29.4077C28.0109 29.7734 28.5313 29.5718 28.5313 29.0937C28.5313 28.7374 28.0391 28.5359 27.7578 28.7796Z" fill="#008080"/>
<path d="M38.5109 34.0578C38.3234 34.2453 38.3234 34.475 38.5109 34.6812C38.6234 34.8078 38.6797 34.8359 38.8437 34.8359C39.0078 34.8359 39.0641 34.8078 39.1766 34.6812C39.3641 34.475 39.3641 34.2453 39.1766 34.0578C39.0687 33.95 38.9984 33.9219 38.8437 33.9219C38.6891 33.9219 38.6187 33.95 38.5109 34.0578Z" fill="#008080"/>
</g>
<defs>
<clipPath id="clip0_299_2001">
<rect width="24" height="24" fill="white" transform="translate(20 20)"/>
</clipPath>
</defs>
</svg>
