<svg width="30" height="30" viewBox="0 0 30 30" fill="none" xmlns="http://www.w3.org/2000/svg">
<path fill-rule="evenodd" clip-rule="evenodd" d="M6.875 8.47222C6.875 7.24492 7.86992 6.25 9.09722 6.25H19.0972C20.3245 6.25 21.3194 7.24492 21.3194 8.47222V9.58333C22.5467 9.58333 23.5417 10.5783 23.5417 11.8056V14.0278H21.3194C20.0921 14.0278 19.0972 15.0227 19.0972 16.25C19.0972 17.4071 19.9884 18.3561 21.1218 18.4482L21.3194 18.4554L23.5417 18.4386V20.6944C23.5417 21.9217 22.5467 22.9167 21.3194 22.9167H9.09722C7.86992 22.9167 6.875 21.9217 6.875 20.6944V8.47222Z" stroke="#008080" stroke-width="1.5" stroke-linecap="round" stroke-linejoin="round"/>
<path d="M21.3194 9.58334H6.875" stroke="#008080" stroke-width="1.5" stroke-linecap="round" stroke-linejoin="round"/>
<path d="M22.2917 14.0278H25.0695V18.4722H22.2917" stroke="#008080" stroke-width="1.5" stroke-linecap="round" stroke-linejoin="round"/>
</svg>
